<?xml version="1.0" encoding="utf-8"?>
<!-- Generator: Adobe Illustrator 19.0.0, SVG Export Plug-In . SVG Version: 6.00 Build 0)  -->
<svg version="1.1" id="Layer_1" xmlns="http://www.w3.org/2000/svg" xmlns:xlink="http://www.w3.org/1999/xlink" x="0px" y="0px"
	 viewBox="0 0 750 500" style="enable-background:new 0 0 750 500;" xml:space="preserve">
<style type="text/css">
	.st0{clip-path:url(#XMLID_15_);fill:url(#XMLID_16_);}
	.st1{clip-path:url(#XMLID_15_);fill:url(#XMLID_17_);}
	.st2{clip-path:url(#XMLID_15_);fill:url(#XMLID_18_);}
	.st3{clip-path:url(#XMLID_15_);fill:url(#XMLID_19_);}
	.st4{clip-path:url(#XMLID_15_);fill:url(#XMLID_20_);}
	.st5{clip-path:url(#XMLID_15_);}
	.st6{fill:#F29222;}
	.st7{fill:#814736;}
	.st8{fill:#FAA82F;}
	.st9{fill:#FABD22;}
	.st10{fill:#F8DA22;}
	.st11{fill:#964E22;}
	.st12{fill:#D42E2D;}
	.st13{fill:#391E29;}
	.st14{fill:#A22723;}
	.st15{fill:#FFFFFF;}
	.st16{fill:#C5B8B7;}
	.st17{fill:#F2E2E2;}
	.st18{fill:#B0B0B0;}
	.st19{fill:#BA4A59;}
	.st20{fill:#989898;}
	.st21{fill:#A04150;}
	.st22{fill:#BC6728;}
	.st23{clip-path:url(#XMLID_15_);fill:#DE8D37;}
	.st24{clip-path:url(#XMLID_15_);fill:#964E22;}
	.st25{clip-path:url(#XMLID_15_);fill:#BC6728;}
	.st26{clip-path:url(#XMLID_15_);fill:#EF9437;}
	.st27{clip-path:url(#XMLID_15_);fill:#E8712D;}
	.st28{clip-path:url(#XMLID_15_);fill:#FABD22;}
	.st29{clip-path:url(#XMLID_15_);fill:#F29222;}
</style>
<g id="XMLID_547_">
	<defs>
		<rect id="XMLID_518_" x="0" y="0" width="750" height="500"/>
	</defs>
	<clipPath id="XMLID_15_">
		<use xlink:href="#XMLID_518_"  style="overflow:visible;"/>
	</clipPath>
	<linearGradient id="XMLID_16_" gradientUnits="userSpaceOnUse" x1="375.6726" y1="183" x2="375.6726" y2="-74.6373">
		<stop  offset="0" style="stop-color:#F2F5D0"/>
		<stop  offset="1" style="stop-color:#99CC99"/>
	</linearGradient>
	<rect id="XMLID_517_" x="1.3" y="0" class="st0" width="748.7" height="500"/>
	<linearGradient id="XMLID_17_" gradientUnits="userSpaceOnUse" x1="442.3314" y1="403.5508" x2="314.8894" y2="181.0495">
		<stop  offset="0" style="stop-color:#DBE5E4"/>
		<stop  offset="1" style="stop-color:#97B3AF"/>
	</linearGradient>
	<path id="XMLID_516_" class="st1" d="M650.2,386.2c-0.9-5-5.1-8.5-9.9-8.7c-2.9-3.8-7.5-6.1-12.4-5.7c-1.8-4-5.4-6.9-9.6-8
		c1-2,1.5-4.2,1.5-6.5c4.5-1.8,7.3-6.6,6.4-11.6c-0.8-4.3-4.1-7.5-8.1-8.5c0-0.3,0-0.5-0.1-0.8c-0.8-4.8-4.8-8.2-9.4-8.6
		c0-0.1,0-0.3,0-0.4c-0.7-4-3.1-7.4-6.2-9.5c0.1-1.1,0.2-2.1,0-3.3c-1-5.7-6.5-9.6-12.3-8.5c-0.7-3.9-2.9-7.2-6-9.4
		c0.2-1.4,0.2-2.8-0.1-4.3c-1.4-7.9-8.9-13.1-16.8-11.7c-2.9,0.5-5.5,1.9-7.5,3.8c0-0.1,0-0.2,0-0.2c-0.3-1.7-0.9-3.3-1.8-4.7
		c1.2-2.1,1.7-4.5,1.3-7c-1-5.7-6.5-9.6-12.3-8.5c-1.4,0.2-2.6,0.7-3.7,1.4c-2.8-2.1-6.2-3.2-9.9-2.9c-1.7-3.4-5.2-5.8-9.2-5.8
		c-3,0-5.7,1.3-7.6,3.3c-0.3-0.1-0.6-0.1-1-0.2c-0.2,0-0.4-0.1-0.6-0.1c-2.3-0.8-4.8-1.1-7.4-0.7c-1.4,0.2-2.7,0.7-3.8,1.3
		c-2-2-4.6-3.5-7.6-4c-0.6-0.1-1.3-0.1-1.9-0.1c1.5-1.8,2.6-4,3.1-6.6c1-5.6-1.4-11.1-5.8-14.2c0.1-0.5,0.3-0.9,0.4-1.4
		c1.3-7.2-3-14-9.8-16.2c-2.9-4-7.3-6.9-12.5-7.9c-5.6-1-11.1,0.5-15.4,3.7c-1.5-0.9-3.2-1.6-5-1.9c-6.4-1.1-12.4,2.1-15.3,7.6
		c-1.8-1-3.7-1.7-5.8-2.1c-1.9-0.3-3.7-0.3-5.5-0.1c-2.9-4.4-7.4-7.6-13-8.6c-5.6-1-11.1,0.5-15.4,3.7c-1.5-0.9-3.2-1.6-5-1.9
		c-4.5-0.8-8.8,0.6-11.9,3.4c-0.3-0.1-0.6-0.2-0.9-0.3c-5.6-1-11.1,0.5-15.4,3.7c-1.5-0.9-3.2-1.6-5-1.9
		c-7.8-1.4-15.3,3.8-16.7,11.7c-0.6,3.4,0.1,6.8,1.7,9.6c-1.1,1.9-2,4.1-2.4,6.4c0,0.1,0,0.2,0,0.3c-2.7-2.6-6.2-4.5-10.3-5.2
		c-10.8-1.9-21,5.2-22.9,16c-0.4,2-0.3,3.9-0.1,5.9c-4.2,2.9-7.2,7.4-8.2,12.8c-7.8-1.4-15.3,3.8-16.7,11.7c-0.3,1.5-0.2,3,0,4.4
		c-4.3,2.9-7.5,7.4-8.5,12.9c0,0.2,0,0.4,0,0.6c-6.3,0.6-11.6,5.3-12.8,11.8c-0.1,0.4,0,0.8-0.1,1.1c-5.5,1.2-10,5.7-11,11.5
		c-1.2,6.8,2.6,13.4,8.8,15.9c0,3.1,0.7,6.1,2.1,8.9c-5.7,1.4-10.6,5.4-13.1,10.9c-6.8-0.4-13.1,2.6-17,7.8
		c-6.6,0.3-12.3,5.1-13.5,11.9c-1.4,7.8,3.8,15.3,11.7,16.7l14.2,2.7c2.2,0.4,4.3,0.3,6.3,0l304.9,0.5c4,0.7,8,0.2,11.5-1.4
		l62.7-0.1c1.5,0.2,3.1,0.3,4.6,0l10.4-2C647.4,397.4,651.2,391.9,650.2,386.2z"/>
	<linearGradient id="XMLID_18_" gradientUnits="userSpaceOnUse" x1="383.7938" y1="300.3349" x2="347.7938" y2="462.3349">
		<stop  offset="0" style="stop-color:#DBE5E4"/>
		<stop  offset="0.3747" style="stop-color:#D9E3E2"/>
		<stop  offset="0.5915" style="stop-color:#D1DDDB"/>
		<stop  offset="0.768" style="stop-color:#C4D3D1"/>
		<stop  offset="0.922" style="stop-color:#B3C7C4"/>
		<stop  offset="1" style="stop-color:#A7BFBB"/>
	</linearGradient>
	<path id="XMLID_515_" class="st2" d="M538.2,390.4c-2.1-3.6-6.4-5.6-10.7-4.6c-2.1,0.5-3.9,1.7-5.2,3.3c-1.3-0.2-2.7-0.2-4.1,0.1
		c-0.1,0-0.1,0-0.1,0.1c0,0,0,0,0,0c-1-4-3.7-7.2-7.1-8.9c0.9-2,1.3-4.2,0.7-6.5c-1.3-5.3-6.6-8.5-11.8-7.3
		c-0.7,0.2-1.4,0.5-2.1,0.8c-3.2-3-7.8-4.4-12.4-3.3c-0.3,0.1-0.5,0.2-0.8,0.3c0.3-1.3,0.3-2.8-0.1-4.2c-1-4-4.3-6.9-8.2-7.4
		c0-0.1,0-0.2,0-0.4c-1.7-7.2-9-11.7-16.2-10c-3.3,0.8-6,2.8-7.8,5.4c-2.2-1.5-5-2.1-7.8-1.5c-0.2,0-0.4,0.1-0.6,0.2
		c-1.1-2.1-2.7-3.8-4.6-5c0.1-1,0-1.9-0.2-2.9c-1.3-5.3-6.6-8.5-11.8-7.3c-3.6,0.9-6.2,3.6-7.2,7c-0.5,0.1-1,0.1-1.5,0.2
		c-1.4,0.3-2.7,0.9-3.9,1.7c-2.1-3.6-6.4-5.6-10.7-4.5c-3.5,0.8-6.1,3.5-7.1,6.7c-1.7-0.2-3.4-0.2-5.1,0.2c-1.3,0.3-2.4,0.8-3.5,1.4
		c-0.5-1.6-1.3-3-2.4-4.1c0.5-1.6,0.7-3.4,0.2-5.2c-1.3-5.3-6.6-8.5-11.8-7.3c-2.1,0.5-3.8,1.6-5.1,3.1c-2.5-1-5.3-1.3-8.1-0.6
		c-1.7-7.2-9-11.7-16.2-10c-0.2,0.1-0.4,0.2-0.7,0.2c-2.2-3.2-6.3-4.9-10.3-4c-2.9,0.7-5.1,2.6-6.4,5c-0.8,0-1.6,0.1-2.4,0.3
		c-3.7,0.9-6.7,3.3-8.5,6.3c-2.6-5.8-9-9.1-15.4-7.6c-3.5,0.8-6.3,3-8.1,5.8c-0.2,0-0.4,0-0.6,0.1c-4.3,1-7.2,4.7-7.5,8.9
		c-2.3-1.2-4.9-1.7-7.6-1.4c-2.3-1.8-5.3-2.6-8.3-1.8c-0.2,0-0.4,0.1-0.6,0.2c-2.9-1.7-6.4-2.3-9.8-1.5c-1.9,0.5-3.6,1.3-5,2.4
		c-2.3-2-5.6-3-8.8-2.2c-0.2,0-0.3,0.1-0.5,0.2c-2.2-3.6-6.4-5.5-10.7-4.5c-5.3,1.3-8.5,6.6-7.3,11.8c0.1,0.5,0.3,1,0.5,1.4
		c-3.8,3.2-5.7,8.3-4.4,13.4c0.4,1.5,1,2.9,1.8,4.1c-4.2,3-6.4,8.3-5.3,13.6c-1.4-0.3-2.8-0.3-4.3,0c-5.3,1.3-8.5,6.6-7.3,11.8
		c0.4,1.7,1.3,3.2,2.4,4.4c-2.7,1.8-4.5,4.6-5.3,7.7c-1.8-0.4-3.8-0.4-5.7,0.1c-4.2,1-7.4,3.9-9.1,7.6c-1.7-0.6-3.7-0.8-5.6-0.3
		c-3.2,0.8-5.6,3-6.8,5.8c-0.6,0-1.2,0.1-1.9,0.3c-5,1.2-8.1,6-7.4,11c-1.2,2.1-1.7,4.7-1.1,7.3c1.3,5.3,6.6,8.5,11.8,7.3
		l356.7-16.8c1.6,0.2,3.2,0.2,4.8-0.2c7.2-1.7,11.7-9,10-16.2C548.8,394.8,543.8,390.9,538.2,390.4z"/>
	<linearGradient id="XMLID_19_" gradientUnits="userSpaceOnUse" x1="-70.2331" y1="262.2574" x2="177.0541" y2="387.493">
		<stop  offset="0" style="stop-color:#DBE5E4"/>
		<stop  offset="1" style="stop-color:#97B3AF"/>
	</linearGradient>
	<path id="XMLID_514_" class="st3" d="M255.7,407c-2.8-4.7-7.7-7.8-13.3-8.1c-1.6-4.8-5.2-8.5-9.8-10.2c1.4-2.1,2.3-4.5,2.5-7.1
		c5.4-1.5,9.1-6.6,8.7-12.3c-0.3-5-3.6-9-8.1-10.6c0-0.3,0.1-0.6,0-0.9c-0.4-5.5-4.4-9.8-9.5-10.9c0-0.2,0-0.3,0-0.5
		c-0.3-4.7-2.5-8.7-5.9-11.5c0.3-1.2,0.5-2.4,0.4-3.7c-0.4-6.6-6.2-11.6-12.8-11.2c-0.3-4.5-2.4-8.5-5.6-11.3
		c0.4-1.6,0.6-3.2,0.5-4.9c-0.6-9.1-8.4-15.9-17.5-15.3c-3.4,0.2-6.5,1.5-9,3.4c0-0.1,0-0.2,0-0.3c-0.1-2-0.7-3.8-1.4-5.5
		c1.6-2.2,2.5-4.9,2.3-7.8c-0.4-6.6-6.2-11.6-12.8-11.2c-1.6,0.1-3,0.5-4.3,1.2c-3.2-3-7.6-4.8-12.4-4.5c-0.3,0-0.5,0.1-0.8,0.1
		c-2.4-2.6-5.8-4.1-9.6-3.9c-1.6,0.1-3,0.5-4.3,1.2c-3.2-3-7.6-4.8-12.4-4.5c-4.7,0.3-8.8,2.6-11.5,5.9c-1.5-0.3-3-0.5-4.6-0.4
		c-1.8,0.1-3.4,0.6-5,1.2c-1.8-4.8-6.6-8-11.9-7.7c-1.6,0.1-3,0.5-4.3,1.2c-3.2-3-7.6-4.8-12.4-4.5c-4.4,0.3-8.3,2.3-11.1,5.4
		c-5.8,1.2-10,6.4-9.6,12.5c0,0.4,0.1,0.8,0.2,1.2c-3.9,2.2-6.4,6.5-6.1,11.2c0.1,2.1,0.9,4.1,2,5.7c-0.5,0-1-0.1-1.6-0.1
		c-2.8,0.2-5.3,1.4-7.3,3.2c-2.7-1.5-5.8-2.3-9.1-2.1c-8.4,0.6-14.9,7.4-15.3,15.6c-4.2,1.7-7.2,5.7-7.5,10.3
		c-2.8-1.7-6-2.5-9.5-2.3c-9.1,0.6-15.9,8.4-15.3,17.5c0.4,5.9,3.9,10.9,8.9,13.5c-0.8,2.2-1.3,4.5-1.1,7c0.1,1.8,0.6,3.5,1.3,5.2
		c-4.5,2-7.5,6.6-7.1,11.7c0.1,1,0.3,2,0.6,2.9c-0.1,0-0.3,0-0.4,0c-9.1,0.6-15.9,8.4-15.3,17.5c0.6,9.1,8.4,15.9,17.5,15.3
		l252.4,27.6c1.7,0.4,3.4,0.7,5.2,0.6l12-0.9c6.6-0.4,11.6-6.2,11.2-12.8C265.4,412.3,261.1,407.8,255.7,407z"/>
	
		<radialGradient id="XMLID_20_" cx="606.1226" cy="344.6568" r="234.5525" fx="580.0631" fy="332.0886" gradientUnits="userSpaceOnUse">
		<stop  offset="0" style="stop-color:#DBE5E4"/>
		<stop  offset="0.2379" style="stop-color:#D8E2E1"/>
		<stop  offset="0.4641" style="stop-color:#CDD9D8"/>
		<stop  offset="0.6857" style="stop-color:#BCCCCA"/>
		<stop  offset="0.903" style="stop-color:#A4BBB8"/>
		<stop  offset="1" style="stop-color:#97B3AF"/>
	</radialGradient>
	<path id="XMLID_513_" class="st4" d="M752.5,287c-1.1,0.4-2.2,0.9-3.2,1.6c-2.3-3.6-5.9-6.3-10.3-7.1c-1.9-3.8-5.8-6.4-10.3-6.3
		c-1.8,0-3.5,0.5-5,1.3c-1.9-0.8-3.9-1.2-6.1-1.2c-5.2,0.1-9.7,2.7-12.5,6.6c-5.4,0.8-9.9,4.4-11.9,9.2c-2.8-2.5-6.5-4-10.5-4
		c-4.5,0.1-8.5,2.1-11.3,5.2c-1.3-0.5-2.7-0.8-4.2-0.8c-6.3,0.1-11.3,5.2-11.2,11.5c0,0.1,0,0.2,0,0.3c-2.6,1.4-4.6,3.8-5.5,6.7
		c-1.5-0.5-3.1-0.8-4.8-0.8c-1.5,0-2.8,0.3-4.2,0.7c-2-1.6-4.5-2.6-7.2-2.5c-6,0.1-10.8,4.9-11.1,10.8c-1.4,0.5-2.6,1.2-3.8,2.1
		c-2.9-3.3-7.1-5.4-11.9-5.3c-4.5,0.1-8.5,2.1-11.3,5.2c-1.3-0.5-2.7-0.8-4.2-0.8c-5.6,0.1-10.2,4.3-11,9.7
		c-4.9,2.1-8.4,6.6-9.2,12.1c-3.5,2.7-5.8,6.7-6,11.3c-0.7,0.5-1.4,1-2.1,1.7c-1.9-1.2-4.1-2-6.5-1.9c-6.3,0.1-11.3,5.2-11.2,11.5
		c0,1.7,0.4,3.2,1.1,4.6c-0.6,1.7-1,3.5-0.9,5.4c0,0.3,0.1,0.5,0.1,0.8c-4.2,1.7-7.1,5.8-7.1,10.6c0,0.1,0,0.2,0,0.4
		c-1.1-0.2-2.2-0.3-3.3-0.3c-4.1,0.1-7.8,1.8-10.6,4.4c-0.2,0-0.4-0.1-0.7-0.1c-6.3,0.1-11.3,5.2-11.2,11.5
		c0.1,6.3,5.2,11.3,11.5,11.2c0.1,0,0.1,0,0.2,0c-0.1,0.7-0.2,1.4-0.2,2.2c0,2.3,0.8,4.4,2,6.2c-1.2-0.4-2.6-0.7-4-0.7
		c-6.3,0.1-11.3,5.2-11.2,11.5c0,0.4,0.1,0.8,0.1,1.2c-3.7,1.6-6.6,4.6-8.1,8.3c-1.2-0.4-2.5-0.7-3.9-0.7
		c-6.3,0.1-11.3,5.2-11.2,11.5c0.1,6.3,5.2,11.3,11.5,11.2l18.1-0.5l232.7-18L752.5,287z"/>
	<g id="XMLID_300_" class="st5">
		<g id="XMLID_361_">
			<path id="XMLID_367_" class="st6" d="M669.8,367.8c-0.1,0.2-0.2,0.5-0.2,0.8c0,0.9,0.7,1.6,1.6,1.6c0,0,0,0,0,0
				c0.1,1.4,1.3,2.6,2.8,2.6c0.2,0.7,0.8,1.2,1.6,1.2c0.4,0,0.8-0.2,1.1-0.5c0.4,0.2,0.8,0.4,1.3,0.4c0.3,0,0.6-0.1,0.8-0.2
				c0.5,0.9,1.5,1.6,2.6,1.5c1.4,0,2.6-1,2.9-2.4c0.3,0.2,0.7,0.3,1.1,0.3c0.6,0,1.2-0.3,1.6-0.6c0.3,0.1,0.5,0.1,0.8,0.1
				c1.4,0,2.5-1.1,2.4-2.5c0-0.3-0.1-0.6-0.2-0.9c0.1,0,0.2,0,0.3,0c0.9,0,1.6-0.7,1.6-1.6c0-0.6-0.3-1.1-0.7-1.3
				c0.1-0.3,0.1-0.6,0.1-0.9c0-0.3,0-0.5-0.1-0.7c0.6-0.5,1-1.3,1-2.2c0-1.6-1.3-2.8-2.8-2.9c-0.3-1.1-1.3-1.9-2.5-2.1
				c-0.1-0.3-0.2-0.5-0.5-0.7c-0.1-0.3-0.3-0.6-0.5-0.9c0-0.1,0-0.2,0-0.3c0-0.9-0.7-1.6-1.6-1.6c-0.3,0-0.6,0.1-0.9,0.3
				c-0.2-1.1-1.2-2-2.4-2c0,0-0.1,0-0.1,0c-0.2-0.6-0.8-1.1-1.5-1.1c-0.9,0-1.6,0.7-1.6,1.6c0,0,0,0,0,0.1c-0.4,0.1-0.8,0.4-1,0.7
				c-1.1,0.4-2,1.5-1.9,2.8c0,0,0,0,0,0c-0.1,0-0.1,0-0.2,0c-1.3,0-2.4,0.9-2.8,2c-0.1,0-0.1,0-0.2,0c-0.9,0-1.6,0.7-1.6,1.6
				c0,0.2,0.1,0.4,0.1,0.6c-0.6,0.4-1,1.1-1,1.9c-0.8,0.5-1.4,1.5-1.4,2.5C668.3,366.4,668.9,367.3,669.8,367.8z"/>
			<path id="XMLID_366_" class="st7" d="M681.8,375.3c2.6-2.2,4.7-5.4,4.7-5.4l-1.1,0c0,0-1.1,2.3-2.9,3.5c-0.1,0.1-0.6,0.8-1.1,0.4
				c0,0,1.5-1.8,1.3-2.7l-0.6,0c0,0-0.3,1.5-1.9,2.4l-1.1-2.8c0,0-0.8-0.2-0.8,0c0.2,0.7,0.4,1.2,0.5,1.7c-0.7-1-1-1.4-1.7-1.9
				l-0.9-0.3c0,0,0.5,1,1.3,2.1c0.5,0.7,1.4,1.8,1.5,2.4c0.2,3.3,0.5,6.9-0.1,11.4l3.7,0C682.7,386,680.8,376,681.8,375.3z"/>
			<path id="XMLID_365_" class="st8" d="M668.5,364c0.2-0.5,0.6-0.9,1.1-1.2c0-0.8,0.4-1.5,1-1.9c-0.1-0.2-0.1-0.4-0.1-0.6
				c0-0.9,0.7-1.6,1.6-1.6c0.1,0,0.1,0,0.2,0c0.4-1.2,1.5-2,2.8-2c0.1,0,0.1,0,0.2,0c0,0,0,0,0,0c0-1.3,0.8-2.4,1.9-2.8
				c0.2-0.4,0.6-0.6,1-0.7c0,0,0,0,0-0.1c0-0.9,0.7-1.6,1.6-1.6c0.7,0,1.3,0.4,1.5,1.1c0,0,0.1,0,0.1,0c1.2,0,2.2,0.8,2.4,2
				c0.3-0.2,0.6-0.3,0.9-0.3c0.9,0,1.6,0.7,1.6,1.6c0,0.1,0,0.2,0,0.3c0.2,0.2,0.4,0.5,0.5,0.9c0.2,0.2,0.4,0.4,0.5,0.7
				c1.2,0.1,2.2,1,2.5,2.1c1.5,0.1,2.8,1.3,2.8,2.9c0,0.6-0.1,1.1-0.4,1.5c0,0.1-0.1,0.1-0.1,0.2c0,0,0,0,0,0c0,0.1-0.1,0.1-0.1,0.2
				c0,0,0,0,0,0c0,0-0.1,0.1-0.1,0.1c0,0,0,0,0,0c0,0-0.1,0.1-0.1,0.1c0.1,0.2,0.1,0.5,0.1,0.7c0,0.1,0,0.1,0,0.2c0,0.1,0,0.1,0,0.2
				c0,0,0,0,0,0c0,0.1,0,0.3-0.1,0.4l0,0c-0.2,0.1-0.5,0.2-0.8,0.2c-0.1,0-0.2,0-0.3,0c0.1,0.3,0.2,0.6,0.2,0.9
				c0,1.4-1.1,2.5-2.5,2.5c-0.3,0-0.6,0-0.8-0.1c-0.4,0.4-1,0.6-1.6,0.7c-0.4,0-0.8-0.1-1.1-0.3c-0.3,1.4-1.4,2.4-2.9,2.4
				c-1.1,0-2.1-0.6-2.6-1.6c-0.3,0.1-0.5,0.2-0.8,0.2c-0.5,0-1-0.1-1.3-0.4c-0.3,0.3-0.7,0.5-1.1,0.5c-0.8,0-1.4-0.5-1.6-1.2
				c-1.5-0.1-2.7-1.2-2.8-2.7c0,0,0,0,0,0c-0.9,0-1.6-0.7-1.6-1.6c0-0.3,0.1-0.5,0.2-0.8C669.2,364.8,668.8,364.4,668.5,364z"/>
			<path id="XMLID_364_" class="st9" d="M679.9,363.3c-0.1,0.1-0.1,0.2-0.1,0.4c0,0.5,0.4,0.8,0.8,0.8c0,0,0,0,0,0
				c0.1,0.7,0.7,1.3,1.4,1.4c0.1,0.4,0.4,0.6,0.8,0.6c0.2,0,0.4-0.1,0.6-0.3c0.2,0.1,0.4,0.2,0.7,0.2c0.1,0,0.3,0,0.4-0.1
				c0.3,0.5,0.8,0.8,1.4,0.8c0.7,0,1.3-0.5,1.5-1.2c0.2,0.1,0.4,0.1,0.6,0.1c0.3,0,0.6-0.1,0.8-0.3c0.1,0,0.3,0.1,0.4,0.1
				c0.7,0,1.3-0.6,1.3-1.3c0-0.2,0-0.3-0.1-0.5c0.1,0,0.1,0,0.2,0c0.5,0,0.8-0.4,0.8-0.8c0-0.3-0.2-0.5-0.4-0.7
				c0-0.1,0.1-0.3,0.1-0.5c0-0.1,0-0.3-0.1-0.4c0.3-0.3,0.5-0.7,0.5-1.1c0-0.8-0.6-1.5-1.4-1.5c-0.2-0.6-0.7-1-1.3-1.1
				c0-0.1-0.1-0.3-0.2-0.4c-0.1-0.2-0.1-0.3-0.2-0.4c0-0.1,0-0.1,0-0.2c0-0.5-0.4-0.8-0.8-0.8c-0.2,0-0.3,0.1-0.5,0.1
				c-0.1-0.6-0.6-1-1.3-1c0,0,0,0,0,0c-0.1-0.3-0.4-0.6-0.8-0.6c-0.5,0-0.8,0.4-0.8,0.8c0,0,0,0,0,0c-0.2,0.1-0.4,0.2-0.5,0.4
				c-0.6,0.2-1,0.8-1,1.4c0,0,0,0,0,0c0,0-0.1,0-0.1,0c-0.7,0-1.2,0.4-1.4,1.1c0,0-0.1,0-0.1,0c-0.5,0-0.8,0.4-0.8,0.8
				c0,0.1,0,0.2,0.1,0.3c-0.3,0.2-0.5,0.6-0.5,1c-0.4,0.3-0.7,0.8-0.7,1.3C679.1,362.6,679.4,363,679.9,363.3z"/>
			<path id="XMLID_363_" class="st9" d="M668.8,365.4c-0.1,0.1-0.1,0.2-0.1,0.4c0,0.5,0.4,0.8,0.8,0.8c0,0,0,0,0,0
				c0.1,0.7,0.7,1.3,1.4,1.4c0.1,0.4,0.4,0.6,0.8,0.6c0.2,0,0.4-0.1,0.6-0.3c0.2,0.1,0.4,0.2,0.7,0.2c0.1,0,0.3,0,0.4-0.1
				c0.3,0.5,0.8,0.8,1.4,0.8c0.7,0,1.3-0.5,1.5-1.2c0.2,0.1,0.4,0.1,0.6,0.1c0.3,0,0.6-0.1,0.8-0.3c0.1,0,0.3,0.1,0.4,0.1
				c0.7,0,1.3-0.6,1.3-1.3c0-0.2,0-0.3-0.1-0.5c0.1,0,0.1,0,0.2,0c0.5,0,0.8-0.4,0.8-0.8c0-0.3-0.2-0.5-0.4-0.7
				c0-0.1,0.1-0.3,0.1-0.5c0-0.1,0-0.3-0.1-0.4c0.3-0.3,0.5-0.7,0.5-1.1c0-0.8-0.6-1.5-1.4-1.5c-0.2-0.6-0.7-1-1.3-1.1
				c0-0.1-0.1-0.3-0.2-0.4c-0.1-0.2-0.1-0.3-0.2-0.4c0-0.1,0-0.1,0-0.2c0-0.5-0.4-0.8-0.8-0.8c-0.2,0-0.3,0.1-0.5,0.1
				c-0.1-0.6-0.6-1-1.3-1c0,0,0,0,0,0c-0.1-0.3-0.4-0.6-0.8-0.6c-0.5,0-0.8,0.4-0.8,0.8c0,0,0,0,0,0c-0.2,0.1-0.4,0.2-0.5,0.4
				c-0.6,0.2-1,0.8-1,1.4c0,0,0,0,0,0c0,0-0.1,0-0.1,0c-0.7,0-1.2,0.4-1.4,1.1c0,0-0.1,0-0.1,0c-0.5,0-0.8,0.4-0.8,0.8
				c0,0.1,0,0.2,0.1,0.3c-0.3,0.2-0.5,0.6-0.5,1c-0.4,0.3-0.7,0.8-0.7,1.3C668,364.7,668.3,365.2,668.8,365.4z"/>
			<path id="XMLID_362_" class="st10" d="M674.7,361.3c-0.1,0.1-0.1,0.2-0.1,0.4c0,0.5,0.4,0.8,0.8,0.8c0,0,0,0,0,0
				c0.1,0.7,0.7,1.3,1.4,1.4c0.1,0.4,0.4,0.6,0.8,0.6c0.2,0,0.4-0.1,0.6-0.3c0.2,0.1,0.4,0.2,0.7,0.2c0.1,0,0.3,0,0.4-0.1
				c0.3,0.5,0.8,0.8,1.4,0.8c0.7,0,1.3-0.5,1.5-1.2c0.2,0.1,0.4,0.1,0.6,0.1c0.3,0,0.6-0.1,0.8-0.3c0.1,0,0.3,0.1,0.4,0.1
				c0.7,0,1.3-0.6,1.3-1.3c0-0.2,0-0.3-0.1-0.5c0.1,0,0.1,0,0.2,0c0.5,0,0.8-0.4,0.8-0.8c0-0.3-0.2-0.5-0.4-0.7
				c0-0.1,0.1-0.3,0.1-0.5c0-0.1,0-0.3-0.1-0.4c0.3-0.3,0.5-0.7,0.5-1.1c0-0.8-0.6-1.5-1.4-1.5c-0.2-0.6-0.7-1-1.3-1.1
				c0-0.1-0.1-0.3-0.2-0.4c-0.1-0.2-0.1-0.3-0.2-0.4c0-0.1,0-0.1,0-0.2c0-0.5-0.4-0.8-0.8-0.8c-0.2,0-0.3,0.1-0.5,0.1
				c-0.1-0.6-0.6-1-1.3-1c0,0,0,0,0,0c-0.1-0.3-0.4-0.6-0.8-0.6c-0.5,0-0.8,0.4-0.8,0.8c0,0,0,0,0,0c-0.2,0.1-0.4,0.2-0.5,0.4
				c-0.6,0.2-1,0.8-1,1.4c0,0,0,0,0,0c0,0-0.1,0-0.1,0c-0.7,0-1.2,0.4-1.4,1.1c0,0-0.1,0-0.1,0c-0.5,0-0.8,0.4-0.8,0.8
				c0,0.1,0,0.2,0.1,0.3c-0.3,0.2-0.5,0.6-0.5,1c-0.4,0.3-0.7,0.8-0.7,1.3C673.9,360.6,674.2,361.1,674.7,361.3z"/>
		</g>
		<g id="XMLID_354_">
			<path id="XMLID_360_" class="st6" d="M707.9,375.7c0-1.1-0.6-2-1.5-2.5c0-0.8-0.4-1.5-1-1.9c0.1-0.2,0.1-0.4,0.1-0.6
				c0-0.9-0.7-1.6-1.6-1.6c-0.1,0-0.1,0-0.2,0c-0.4-1.2-1.5-2-2.8-2c-0.1,0-0.1,0-0.2,0c0,0,0,0,0,0c0-1.3-0.9-2.4-2-2.8
				c-0.2-0.4-0.6-0.6-1-0.7c0,0,0,0,0-0.1c0-0.9-0.7-1.6-1.6-1.6c-0.7,0-1.3,0.5-1.5,1.1c0,0-0.1,0-0.1,0c-1.2,0-2.2,0.9-2.4,2
				c-0.3-0.2-0.6-0.3-0.9-0.3c-0.9,0-1.6,0.7-1.6,1.6c0,0.1,0,0.2,0,0.3c-0.2,0.3-0.4,0.5-0.4,0.9c-0.2,0.2-0.4,0.4-0.4,0.7
				c-1.2,0.2-2.1,1-2.5,2.1c-1.5,0.1-2.7,1.4-2.7,3c0,0.9,0.4,1.7,1,2.2c-0.1,0.2-0.1,0.5-0.1,0.7c0,0.3,0.1,0.6,0.1,0.9
				c-0.4,0.3-0.7,0.8-0.7,1.4c0,0.9,0.7,1.6,1.6,1.6c0.1,0,0.2,0,0.3,0c-0.1,0.3-0.2,0.6-0.2,0.9c0,1.4,1.1,2.5,2.5,2.4
				c0.3,0,0.6-0.1,0.8-0.2c0.4,0.4,1,0.6,1.6,0.6c0.4,0,0.8-0.1,1.1-0.3c0.3,1.3,1.5,2.3,2.9,2.3c1.1,0,2.1-0.7,2.6-1.6
				c0.3,0.1,0.5,0.1,0.8,0.1c0.5,0,0.9-0.2,1.3-0.4c0.3,0.3,0.7,0.5,1.1,0.5c0.8,0,1.4-0.5,1.5-1.2c1.5-0.1,2.6-1.3,2.7-2.7
				c0,0,0,0,0,0c0.9,0,1.6-0.7,1.6-1.6c0-0.3-0.1-0.5-0.2-0.7C707.4,377.8,708,376.8,707.9,375.7z"/>
			<path id="XMLID_359_" class="st7" d="M694.7,386c-2.7-2.1-4.9-5.3-4.9-5.3l1.1,0c0,0,1.1,2.2,2.9,3.5c0.1,0.1,0.6,0.8,1.1,0.3
				c0,0-1.5-1.8-1.4-2.7l0.6,0c0,0,0.3,1.5,1.9,2.3l1-2.9c0,0,0.8-0.2,0.8,0c-0.2,0.7-0.3,1.2-0.4,1.8c0.7-1,1-1.4,1.6-1.9l0.9-0.3
				c0,0-0.4,1.1-1.2,2.1c-0.5,0.7-1.4,1.9-1.4,2.5c-0.1,3.3-0.3,6.9,0.4,11.4l-3.7,0C694.1,396.8,695.7,386.8,694.7,386z"/>
			<path id="XMLID_358_" class="st8" d="M707.6,374.4c-0.3-0.5-0.7-0.9-1.1-1.2c0-0.8-0.4-1.5-1-1.9c0.1-0.2,0.1-0.4,0.1-0.6
				c0-0.9-0.7-1.6-1.6-1.6c-0.1,0-0.1,0-0.2,0c-0.4-1.2-1.5-2-2.8-2c-0.1,0-0.1,0-0.2,0c0,0,0,0,0,0c0-1.3-0.9-2.4-2-2.8
				c-0.2-0.4-0.6-0.6-1-0.7c0,0,0,0,0-0.1c0-0.9-0.7-1.6-1.6-1.6c-0.7,0-1.3,0.5-1.5,1.1c0,0-0.1,0-0.1,0c-1.2,0-2.2,0.9-2.4,2
				c-0.3-0.2-0.6-0.3-0.9-0.3c-0.9,0-1.6,0.7-1.6,1.6c0,0.1,0,0.2,0,0.3c-0.2,0.3-0.4,0.5-0.4,0.9c-0.2,0.2-0.4,0.4-0.4,0.7
				c-1.2,0.2-2.1,1-2.5,2.1c-1.5,0.1-2.7,1.4-2.7,3c0,0.6,0.2,1.1,0.4,1.5c0,0.1,0.1,0.1,0.1,0.2c0,0,0,0,0,0c0,0.1,0.1,0.1,0.1,0.2
				c0,0,0,0,0,0c0,0,0.1,0.1,0.1,0.1c0,0,0,0,0,0c0,0,0.1,0.1,0.1,0.1c-0.1,0.2-0.1,0.5-0.1,0.7c0,0.1,0,0.1,0,0.2
				c0,0.1,0,0.1,0,0.2c0,0,0,0,0,0c0,0.1,0.1,0.3,0.1,0.4c0,0,0,0,0,0c0.2,0.1,0.5,0.2,0.8,0.2c0.1,0,0.2,0,0.3,0
				c-0.1,0.3-0.2,0.6-0.2,0.9c0,1.4,1.1,2.5,2.5,2.5c0.3,0,0.6-0.1,0.8-0.2c0.4,0.4,1,0.6,1.7,0.6c0.4,0,0.8-0.1,1.1-0.3
				c0.3,1.3,1.5,2.3,2.9,2.3c1.1,0,2.1-0.7,2.6-1.6c0.3,0.1,0.5,0.1,0.8,0.1c0.5,0,0.9-0.2,1.3-0.4c0.3,0.3,0.7,0.5,1.2,0.5
				c0.8,0,1.4-0.5,1.6-1.3c1.5-0.1,2.6-1.3,2.7-2.7c0,0,0,0,0,0c0.9,0,1.6-0.7,1.6-1.6c0-0.3-0.1-0.5-0.2-0.8
				C707,375.2,707.4,374.8,707.6,374.4z"/>
			<path id="XMLID_357_" class="st9" d="M697,372.7c0-0.6-0.3-1-0.8-1.3c0-0.4-0.2-0.8-0.5-1c0-0.1,0.1-0.2,0.1-0.3
				c0-0.5-0.4-0.8-0.8-0.8c0,0-0.1,0-0.1,0c-0.2-0.6-0.8-1-1.5-1c0,0-0.1,0-0.1,0c0,0,0,0,0,0c0-0.7-0.4-1.2-1-1.4
				c-0.1-0.2-0.3-0.3-0.5-0.4c0,0,0,0,0,0c0-0.5-0.4-0.8-0.8-0.8c-0.4,0-0.7,0.2-0.8,0.6c0,0,0,0,0,0c-0.6,0-1.1,0.5-1.2,1
				c-0.1-0.1-0.3-0.1-0.5-0.1c-0.5,0-0.8,0.4-0.8,0.8c0,0.1,0,0.1,0,0.2c-0.1,0.1-0.2,0.3-0.2,0.4c-0.1,0.1-0.2,0.2-0.2,0.4
				c-0.6,0.1-1.1,0.5-1.3,1.1c-0.8,0.1-1.4,0.7-1.4,1.5c0,0.5,0.2,0.9,0.5,1.1c0,0.1,0,0.3,0,0.4c0,0.2,0,0.3,0.1,0.5
				c-0.2,0.2-0.4,0.4-0.4,0.7c0,0.5,0.4,0.8,0.8,0.8c0.1,0,0.1,0,0.2,0c-0.1,0.1-0.1,0.3-0.1,0.5c0,0.7,0.6,1.3,1.3,1.3
				c0.2,0,0.3,0,0.4-0.1c0.2,0.2,0.5,0.3,0.8,0.3c0.2,0,0.4-0.1,0.6-0.1c0.2,0.7,0.8,1.2,1.5,1.2c0.6,0,1.1-0.3,1.3-0.8
				c0.1,0,0.3,0.1,0.4,0.1c0.3,0,0.5-0.1,0.7-0.2c0.2,0.2,0.4,0.2,0.6,0.2c0.4,0,0.7-0.3,0.8-0.6c0.8-0.1,1.3-0.7,1.4-1.4
				c0,0,0,0,0,0c0.5,0,0.8-0.4,0.8-0.8c0-0.1,0-0.3-0.1-0.4C696.7,373.7,697,373.2,697,372.7z"/>
			<path id="XMLID_356_" class="st9" d="M708.2,374.5c0-0.6-0.3-1-0.8-1.3c0-0.4-0.2-0.8-0.5-1c0-0.1,0.1-0.2,0.1-0.3
				c0-0.5-0.4-0.8-0.8-0.8c0,0-0.1,0-0.1,0c-0.2-0.6-0.8-1-1.5-1c0,0-0.1,0-0.1,0c0,0,0,0,0,0c0-0.7-0.4-1.2-1-1.4
				c-0.1-0.2-0.3-0.3-0.5-0.4c0,0,0,0,0,0c0-0.5-0.4-0.8-0.8-0.8c-0.4,0-0.7,0.2-0.8,0.6c0,0,0,0,0,0c-0.6,0-1.1,0.5-1.2,1
				c-0.1-0.1-0.3-0.1-0.5-0.1c-0.5,0-0.8,0.4-0.8,0.8c0,0.1,0,0.1,0,0.2c-0.1,0.1-0.2,0.3-0.2,0.4c-0.1,0.1-0.2,0.2-0.2,0.4
				c-0.6,0.1-1.1,0.5-1.3,1.1c-0.8,0.1-1.4,0.7-1.4,1.5c0,0.5,0.2,0.9,0.5,1.1c0,0.1,0,0.3,0,0.4c0,0.2,0,0.3,0.1,0.5
				c-0.2,0.2-0.4,0.4-0.4,0.7c0,0.5,0.4,0.8,0.8,0.8c0.1,0,0.1,0,0.2,0c-0.1,0.1-0.1,0.3-0.1,0.5c0,0.7,0.6,1.3,1.3,1.3
				c0.2,0,0.3,0,0.4-0.1c0.2,0.2,0.5,0.3,0.8,0.3c0.2,0,0.4-0.1,0.6-0.1c0.2,0.7,0.8,1.2,1.5,1.2c0.6,0,1.1-0.3,1.3-0.8
				c0.1,0,0.3,0.1,0.4,0.1c0.3,0,0.5-0.1,0.7-0.2c0.2,0.2,0.4,0.2,0.6,0.2c0.4,0,0.7-0.3,0.8-0.6c0.8-0.1,1.3-0.7,1.4-1.4
				c0,0,0,0,0,0c0.5,0,0.8-0.4,0.8-0.8c0-0.1,0-0.3-0.1-0.4C707.9,375.6,708.2,375.1,708.2,374.5z"/>
			<path id="XMLID_355_" class="st10" d="M702.2,370.6c0-0.6-0.3-1-0.8-1.3c0-0.4-0.2-0.8-0.5-1c0-0.1,0.1-0.2,0.1-0.3
				c0-0.5-0.4-0.8-0.8-0.8c0,0-0.1,0-0.1,0c-0.2-0.6-0.8-1-1.5-1c0,0-0.1,0-0.1,0c0,0,0,0,0,0c0-0.7-0.4-1.2-1-1.4
				c-0.1-0.2-0.3-0.3-0.5-0.4c0,0,0,0,0,0c0-0.5-0.4-0.8-0.8-0.8c-0.4,0-0.7,0.2-0.8,0.6c0,0,0,0,0,0c-0.6,0-1.1,0.5-1.2,1
				c-0.1-0.1-0.3-0.1-0.5-0.1c-0.5,0-0.8,0.4-0.8,0.8c0,0.1,0,0.1,0,0.2c-0.1,0.1-0.2,0.3-0.2,0.4c-0.1,0.1-0.2,0.2-0.2,0.4
				c-0.6,0.1-1.1,0.5-1.3,1.1c-0.8,0.1-1.4,0.7-1.4,1.5c0,0.5,0.2,0.9,0.5,1.1c0,0.1,0,0.3,0,0.4c0,0.2,0,0.3,0.1,0.5
				c-0.2,0.2-0.4,0.4-0.4,0.7c0,0.5,0.4,0.8,0.8,0.8c0.1,0,0.1,0,0.2,0c-0.1,0.1-0.1,0.3-0.1,0.5c0,0.7,0.6,1.3,1.3,1.3
				c0.2,0,0.3,0,0.4-0.1c0.2,0.2,0.5,0.3,0.8,0.3c0.2,0,0.4-0.1,0.6-0.1c0.2,0.7,0.8,1.2,1.5,1.2c0.6,0,1.1-0.3,1.3-0.8
				c0.1,0,0.3,0.1,0.4,0.1c0.3,0,0.5-0.1,0.7-0.2c0.2,0.2,0.4,0.2,0.6,0.2c0.4,0,0.7-0.3,0.8-0.6c0.8-0.1,1.3-0.7,1.4-1.4
				c0,0,0,0,0,0c0.5,0,0.8-0.4,0.8-0.8c0-0.1,0-0.3-0.1-0.4C701.9,371.7,702.2,371.1,702.2,370.6z"/>
		</g>
		<path id="XMLID_353_" class="st11" d="M694.5,383.7c-0.2-0.2-0.4-0.4-0.7-0.4c-0.1-0.2-0.3-0.4-0.6-0.5c0.1-0.1,0.1-0.3,0.1-0.4
			c0.3-0.1,0.5-0.4,0.4-0.7c0-0.3-0.2-0.5-0.5-0.5c0,0,0,0,0-0.1c0-0.3-0.3-0.5-0.6-0.5c0,0,0,0,0,0c0-0.2-0.2-0.5-0.4-0.6
			c0-0.1,0-0.1,0-0.2c-0.1-0.4-0.4-0.6-0.7-0.5c0-0.2-0.2-0.4-0.3-0.6c0-0.1,0-0.2,0-0.3c-0.1-0.5-0.5-0.8-1-0.7
			c-0.2,0-0.3,0.1-0.5,0.2c0,0,0,0,0,0c0-0.1-0.1-0.2-0.1-0.3c0.1-0.1,0.1-0.3,0.1-0.4c-0.1-0.4-0.4-0.6-0.7-0.5
			c-0.1,0-0.2,0-0.2,0.1c-0.2-0.1-0.4-0.2-0.7-0.2c0,0,0,0,0,0c-0.1-0.1-0.3-0.2-0.5-0.2c-0.1,0-0.2,0-0.2,0.1
			c-0.2-0.1-0.4-0.2-0.7-0.2c-0.2,0-0.5,0.2-0.6,0.4c-0.1,0-0.2,0-0.2,0c-0.1,0-0.2,0-0.3,0.1c-0.1-0.2-0.4-0.4-0.7-0.4
			c-0.1,0-0.2,0-0.2,0.1c-0.2-0.1-0.4-0.2-0.7-0.2c-0.2,0-0.4,0.2-0.6,0.3c-0.3,0.1-0.5,0.4-0.5,0.7c0,0,0,0,0,0.1
			c-0.2,0.1-0.3,0.4-0.3,0.6c0,0.1,0.1,0.2,0.1,0.3c0,0-0.1,0-0.1,0c-0.2,0-0.3,0.1-0.4,0.2c-0.2-0.1-0.3-0.1-0.5-0.1
			c-0.4,0.1-0.8,0.5-0.7,0.9c-0.2,0.1-0.4,0.3-0.4,0.6c-0.2-0.1-0.3-0.1-0.5-0.1c-0.5,0.1-0.8,0.5-0.7,1c0,0.3,0.3,0.6,0.5,0.7
			c0,0.1,0,0.2,0,0.4c0,0.1,0,0.2,0.1,0.3c-0.2,0.1-0.4,0.4-0.3,0.7c0,0.1,0,0.1,0,0.2c0,0,0,0,0,0c-0.5,0.1-0.8,0.5-0.7,1
			c0.1,0.5,0.5,0.8,1,0.7l13.6,0.4c0.1,0,0.2,0,0.3,0l0.6-0.1c0.4-0.1,0.6-0.4,0.5-0.7C695.1,383.9,694.8,383.7,694.5,383.7z"/>
		<path id="XMLID_352_" class="st11" d="M719.9,388.7c-0.2-0.2-0.4-0.4-0.7-0.4c-0.1-0.2-0.3-0.4-0.6-0.5c0.1-0.1,0.1-0.3,0.1-0.4
			c0.3-0.1,0.5-0.4,0.4-0.7c0-0.3-0.2-0.5-0.5-0.5c0,0,0,0,0-0.1c0-0.3-0.3-0.5-0.6-0.5c0,0,0,0,0,0c0-0.2-0.2-0.5-0.4-0.6
			c0-0.1,0-0.1,0-0.2c-0.1-0.4-0.4-0.6-0.7-0.5c0-0.2-0.2-0.4-0.3-0.6c0-0.1,0-0.2,0-0.3c-0.1-0.5-0.5-0.8-1-0.7
			c-0.2,0-0.3,0.1-0.5,0.2c0,0,0,0,0,0c0-0.1-0.1-0.2-0.1-0.3c0.1-0.1,0.1-0.3,0.1-0.4c-0.1-0.4-0.4-0.6-0.7-0.5
			c-0.1,0-0.2,0-0.2,0.1c-0.2-0.1-0.4-0.2-0.7-0.2c0,0,0,0,0,0c-0.1-0.1-0.3-0.2-0.5-0.2c-0.1,0-0.2,0-0.2,0.1
			c-0.2-0.1-0.4-0.2-0.7-0.2c-0.2,0-0.5,0.2-0.6,0.4c-0.1,0-0.2,0-0.2,0c-0.1,0-0.2,0-0.3,0.1c-0.1-0.2-0.4-0.4-0.7-0.4
			c-0.1,0-0.2,0-0.2,0.1c-0.2-0.1-0.4-0.2-0.7-0.2c-0.2,0-0.4,0.2-0.6,0.3c-0.3,0.1-0.5,0.4-0.5,0.7c0,0,0,0,0,0.1
			c-0.2,0.1-0.3,0.4-0.3,0.6c0,0.1,0.1,0.2,0.1,0.3c0,0-0.1,0-0.1,0c-0.2,0-0.3,0.1-0.4,0.2c-0.2-0.1-0.3-0.1-0.5-0.1
			c-0.4,0.1-0.8,0.5-0.7,0.9c-0.2,0.1-0.4,0.3-0.4,0.6c-0.2-0.1-0.3-0.1-0.5-0.1c-0.5,0.1-0.8,0.5-0.7,1c0,0.3,0.3,0.6,0.5,0.7
			c0,0.1,0,0.2,0,0.4c0,0.1,0,0.2,0.1,0.3c-0.2,0.1-0.4,0.4-0.3,0.7c0,0.1,0,0.1,0,0.2c0,0,0,0,0,0c-0.5,0.1-0.8,0.5-0.7,1
			c0.1,0.5,0.5,0.8,1,0.7L719,390c0.1,0,0.2,0,0.3,0l0.6-0.1c0.4-0.1,0.6-0.4,0.5-0.7C720.5,388.9,720.2,388.7,719.9,388.7z"/>
		<g id="XMLID_310_">
			<polygon id="XMLID_351_" class="st12" points="664.2,382.7 629.6,380.1 631.9,350.6 636.7,340.7 650.3,335.8 663.1,342.7 
				666.4,353.2 			"/>
			<g id="XMLID_349_">
				<polygon id="XMLID_350_" class="st13" points="666.5,355.3 662.6,343.1 650.3,336.4 637.1,341.1 631.5,352.7 630.4,352.2 
					636.3,340.2 650.4,335.1 663.6,342.3 667.6,355 				"/>
			</g>
			<polygon id="XMLID_348_" class="st14" points="664.2,382.7 676.9,383.7 677.8,371 665.5,365 			"/>
			<polygon id="XMLID_347_" class="st13" points="679.5,371.1 665.6,364.4 665.5,365.6 679.4,372.4 			"/>
			
				<rect id="XMLID_346_" x="640.7" y="355.5" transform="matrix(-0.9972 -7.540392e-02 7.540392e-02 -0.9972 1266.1187 784.7488)" class="st14" width="14.4" height="26"/>
			
				<rect id="XMLID_345_" x="645.5" y="343" transform="matrix(0.9972 7.540392e-02 -7.540392e-02 0.9972 28.0135 -47.9869)" class="st13" width="8" height="8"/>
			<g id="XMLID_341_">
				<path id="XMLID_342_" class="st15" d="M653.7,351.9l-9.1-0.7l0.7-9.1l9.1,0.7L653.7,351.9z M645.8,350.1l6.8,0.5l0.5-6.8
					l-6.8-0.5L645.8,350.1z"/>
			</g>
			<g id="XMLID_339_">
				<polygon id="XMLID_340_" class="st15" points="676.8,384.3 653.4,382.5 655.4,356.6 642.2,355.6 640.3,381.5 629.6,380.7 
					629.7,379.5 639.2,380.3 641.1,354.3 656.6,355.5 654.7,381.4 676.9,383.1 				"/>
			</g>
			
				<rect id="XMLID_338_" x="664.1" y="382.6" transform="matrix(-0.9972 -7.540392e-02 7.540392e-02 -0.9972 1310.2441 815.9067)" class="st16" width="12.8" height="1.2"/>
			
				<rect id="XMLID_337_" x="613" y="327.4" transform="matrix(0.9972 7.540392e-02 -7.540392e-02 0.9972 28.433 -45.7789)" class="st17" width="15" height="52.6"/>
			
				<rect id="XMLID_336_" x="620.5" y="326.9" transform="matrix(-0.9972 -7.540392e-02 7.540392e-02 -0.9972 1220.0415 753.2054)" class="st18" width="7.5" height="53.3"/>
			<polygon id="XMLID_335_" class="st19" points="623,320 612.5,328.4 622.3,329.2 632.1,329.9 			"/>
			<g id="XMLID_312_">
				<g id="XMLID_333_">
					
						<rect id="XMLID_334_" x="614.7" y="330.2" transform="matrix(0.9972 7.540392e-02 -7.540392e-02 0.9972 26.69 -45.9771)" class="st20" width="15" height="0.6"/>
				</g>
				<g id="XMLID_331_">
					
						<rect id="XMLID_332_" x="614.4" y="334.8" transform="matrix(0.9972 7.540392e-02 -7.540392e-02 0.9972 27.0386 -45.9375)" class="st20" width="15" height="0.6"/>
				</g>
				<g id="XMLID_329_">
					
						<rect id="XMLID_330_" x="614" y="339.4" transform="matrix(0.9972 7.540392e-02 -7.540392e-02 0.9972 27.3872 -45.8978)" class="st20" width="15" height="0.6"/>
				</g>
				<g id="XMLID_327_">
					
						<rect id="XMLID_328_" x="613.7" y="344.1" transform="matrix(0.9972 7.540392e-02 -7.540392e-02 0.9972 27.7358 -45.8582)" class="st20" width="15" height="0.6"/>
				</g>
				<g id="XMLID_325_">
					
						<rect id="XMLID_326_" x="613.3" y="348.7" transform="matrix(0.9972 7.540392e-02 -7.540392e-02 0.9972 28.0844 -45.8185)" class="st20" width="15" height="0.6"/>
				</g>
				<g id="XMLID_323_">
					
						<rect id="XMLID_324_" x="613" y="353.4" transform="matrix(0.9972 7.540392e-02 -7.540392e-02 0.9972 28.433 -45.7789)" class="st20" width="15" height="0.6"/>
				</g>
				<g id="XMLID_321_">
					
						<rect id="XMLID_322_" x="612.6" y="358" transform="matrix(0.9972 7.540392e-02 -7.540392e-02 0.9972 28.7816 -45.7393)" class="st20" width="15" height="0.6"/>
				</g>
				<g id="XMLID_319_">
					
						<rect id="XMLID_320_" x="612.3" y="362.6" transform="matrix(0.9972 7.540392e-02 -7.540392e-02 0.9972 29.1303 -45.6996)" class="st20" width="15" height="0.6"/>
				</g>
				<g id="XMLID_317_">
					
						<rect id="XMLID_318_" x="611.9" y="367.3" transform="matrix(0.9972 7.540392e-02 -7.540392e-02 0.9972 29.4788 -45.66)" class="st20" width="15" height="0.6"/>
				</g>
				<g id="XMLID_315_">
					
						<rect id="XMLID_316_" x="611.6" y="371.9" transform="matrix(0.9972 7.540392e-02 -7.540392e-02 0.9972 29.8275 -45.6204)" class="st20" width="15" height="0.6"/>
				</g>
				<g id="XMLID_313_">
					
						<rect id="XMLID_314_" x="611.2" y="376.5" transform="matrix(0.9972 7.540392e-02 -7.540392e-02 0.9972 30.1761 -45.5807)" class="st20" width="15" height="0.6"/>
				</g>
			</g>
			<polygon id="XMLID_311_" class="st21" points="632.1,329.9 623,320 624.4,329.3 			"/>
		</g>
		<path id="XMLID_309_" class="st22" d="M711.1,385.7c-0.1-0.2-0.3-0.4-0.6-0.4c-0.1,0-0.3,0-0.4,0.1c-0.1,0-0.2,0-0.2,0
			c0,0,0,0,0,0l0,0c0-0.3-0.1-0.5-0.3-0.6c0.1-0.1,0.1-0.2,0.1-0.4c0-0.3-0.3-0.6-0.6-0.6c0,0-0.1,0-0.1,0c-0.1-0.2-0.4-0.4-0.7-0.4
			c0,0,0,0-0.1,0c0-0.1,0.1-0.2,0.1-0.2c0-0.3-0.2-0.5-0.4-0.6c0,0,0,0,0,0c0-0.5-0.4-0.8-0.8-0.8c-0.2,0-0.4,0.1-0.5,0.2
			c-0.1-0.1-0.3-0.2-0.4-0.2c0,0,0,0,0,0c0-0.1-0.1-0.3-0.2-0.4c0-0.1,0-0.1,0-0.2c0-0.3-0.3-0.6-0.6-0.6c-0.2,0-0.4,0.1-0.5,0.3
			c0,0-0.1,0-0.1,0c-0.1,0-0.2,0-0.3,0c-0.1-0.2-0.3-0.4-0.6-0.4c-0.2,0-0.4,0.1-0.5,0.3c-0.1,0-0.2-0.1-0.3-0.1c-0.1,0-0.2,0-0.2,0
			c0-0.1,0-0.2-0.1-0.3c0.1-0.1,0.1-0.2,0.1-0.3c0-0.3-0.3-0.6-0.6-0.6c-0.1,0-0.2,0-0.3,0.1c-0.1-0.1-0.3-0.1-0.5-0.1
			c0-0.5-0.4-0.8-0.8-0.8c0,0,0,0,0,0c-0.1-0.2-0.3-0.4-0.6-0.4c-0.2,0-0.3,0.1-0.4,0.2c0,0-0.1,0-0.1,0c-0.2,0-0.4,0.1-0.6,0.3
			c-0.1-0.4-0.4-0.7-0.8-0.7c-0.2,0-0.4,0.1-0.6,0.2c0,0,0,0,0,0c-0.3,0-0.5,0.2-0.6,0.4c-0.1-0.1-0.3-0.2-0.4-0.2
			c-0.1-0.1-0.3-0.2-0.5-0.2c0,0,0,0,0,0c-0.1-0.1-0.3-0.2-0.6-0.2c-0.1,0-0.2,0-0.3,0.1c-0.1-0.2-0.3-0.3-0.5-0.2c0,0,0,0,0,0
			c-0.1-0.2-0.3-0.4-0.6-0.4c-0.3,0-0.6,0.3-0.6,0.6c0,0,0,0.1,0,0.1c-0.3,0.1-0.4,0.4-0.4,0.7c0,0.1,0,0.2,0.1,0.3
			c-0.3,0.1-0.5,0.4-0.5,0.7c-0.1,0-0.2-0.1-0.3-0.1c-0.3,0-0.6,0.3-0.6,0.6c0,0.1,0,0.2,0.1,0.3c-0.2,0.1-0.3,0.2-0.4,0.4
			c-0.1,0-0.2-0.1-0.3-0.1c-0.3,0-0.5,0.1-0.6,0.3c-0.1-0.1-0.2-0.1-0.3-0.1c-0.2,0-0.4,0.1-0.5,0.3c0,0-0.1,0-0.1,0
			c-0.3,0-0.6,0.2-0.6,0.6c-0.1,0.1-0.2,0.3-0.2,0.4c0,0.3,0.3,0.6,0.6,0.6l21.5,3.8c0.1,0,0.2,0.1,0.3,0.1c0.5,0,0.8-0.4,0.8-0.8
			C711.6,386.1,711.4,385.8,711.1,385.7z"/>
		<path id="XMLID_305_" class="st11" d="M620.2,372.1c0-0.3,0.3-0.5,0.6-0.5l0-0.2c-0.3,0-0.5-0.3-0.5-0.6l-0.6,0l0-0.1
			c0-0.4-0.2-0.7-0.6-0.7c-0.4,0-0.7,0.2-0.7,0.6l0,0.1l-11.5-0.9l0-0.1c0-0.4-0.2-0.7-0.6-0.7c-0.4,0-0.7,0.2-0.7,0.6l0,0.1
			l-11.5-0.9l0-0.1c0-0.4-0.2-0.7-0.6-0.7c-0.4,0-0.7,0.2-0.7,0.6l0,0.1l-0.6,0c0,0.3-0.3,0.5-0.6,0.5l0,0.2c0.3,0,0.5,0.3,0.5,0.6
			l0.6,0l-0.1,1.1l-0.6,0c0,0.3-0.3,0.5-0.6,0.5l0,0.2c0.3,0,0.5,0.3,0.5,0.6l0.6,0l-0.1,1.5c0,0.4,0.2,0.7,0.6,0.7
			c0.4,0,0.7-0.2,0.7-0.6l0.1-1.5l11.5,0.9l-0.1,1.5c0,0.4,0.2,0.7,0.6,0.7c0.4,0,0.7-0.2,0.7-0.6l0.1-1.5l11.5,0.9l-0.1,1.5
			c0,0.4,0.2,0.7,0.6,0.7c0.4,0,0.7-0.2,0.7-0.6l0.1-1.5l0.6,0c0-0.3,0.3-0.5,0.6-0.5l0-0.2c-0.3,0-0.5-0.3-0.5-0.6l-0.6,0l0.1-1.1
			L620.2,372.1z M594,371.1l0.1-1.1l11.5,0.9l-0.1,1.1L594,371.1z M618.2,373l-11.5-0.9l0.1-1.1l11.5,0.9L618.2,373z"/>
		<path id="XMLID_301_" class="st11" d="M589.9,369.5c0-0.3,0.3-0.5,0.6-0.5l0-0.2c-0.3,0-0.5-0.3-0.5-0.6l-0.6,0l0-0.1
			c0-0.4-0.3-0.7-0.6-0.7s-0.7,0.3-0.7,0.6l0,0.1l-11.5-0.6l0-0.1c0-0.4-0.3-0.7-0.6-0.7c-0.4,0-0.7,0.3-0.7,0.6l0,0.1l-11.5-0.6
			l0-0.1c0-0.4-0.3-0.7-0.6-0.7s-0.7,0.3-0.7,0.6l0,0.1l-0.6,0c0,0.3-0.3,0.5-0.6,0.5l0,0.2c0.3,0,0.5,0.3,0.5,0.6l0.6,0l-0.1,1.1
			l-0.6,0c0,0.3-0.3,0.5-0.6,0.5l0,0.2c0.3,0,0.5,0.3,0.5,0.6l0.6,0l-0.1,1.5c0,0.4,0.3,0.7,0.6,0.7c0.4,0,0.7-0.3,0.7-0.6l0.1-1.5
			l11.5,0.6l-0.1,1.5c0,0.4,0.3,0.7,0.6,0.7s0.7-0.3,0.7-0.6l0.1-1.5l11.5,0.6l-0.1,1.5c0,0.4,0.3,0.7,0.6,0.7
			c0.4,0,0.7-0.3,0.7-0.6l0.1-1.5l0.6,0c0-0.3,0.3-0.5,0.6-0.5l0-0.2c-0.3,0-0.5-0.3-0.5-0.6l-0.6,0l0.1-1.1L589.9,369.5z
			 M563.7,369.2l0.1-1.1l11.5,0.6l-0.1,1.1L563.7,369.2z M588,370.5l-11.5-0.6l0.1-1.1l11.5,0.6L588,370.5z"/>
	</g>
	<path id="XMLID_299_" class="st23" d="M237.1,391.6c0,0,344.9-46.8,512.9,4.3l4.8-2.3v121.9H236.5L237.1,391.6z"/>
	<path id="XMLID_298_" class="st24" d="M160.9,393.1C160.9,393.1,160.9,393.1,160.9,393.1c-0.4-1.4-1.3-2.4-2.6-2.9
		c0.2-0.4,0.3-0.9,0.2-1.3c-0.1-0.9-0.5-1.7-1.2-2.2c0-0.2,0.1-0.5,0-0.7c-0.1-0.9-0.6-1.7-1.3-2.2c0.6-0.8,1-1.8,0.9-2.8
		c-0.2-2.2-2.1-3.9-4.3-3.7c0.5-0.6,0.9-1.4,0.8-2.2c0-0.2,0-0.3-0.1-0.5c1.1-0.5,1.9-1.6,1.8-3c-0.1-1.2-1-2.2-2.1-2.6
		c-0.2-2.1-2-3.7-4.1-3.7c0.2-0.5,0.2-1,0.2-1.6c-0.2-2.2-2.1-3.9-4.4-3.7c-0.1,0-0.2,0-0.2,0c-0.5-0.4-1.2-0.6-1.9-0.5
		c-0.8,0.1-1.4,0.4-1.9,0.9c-0.3-0.1-0.7-0.1-1-0.1c-0.8,0.1-1.5,0.3-2.1,0.8c-0.6-1.1-1.8-1.9-3.1-2c-0.2-1.5-1.6-2.7-3.2-2.6
		c-0.9,0.1-1.7,0.6-2.2,1.2c-0.5-0.1-0.9-0.2-1.4-0.2c-0.6,0-1.2,0.2-1.7,0.5c-0.6-0.7-1.5-1.1-2.5-1c-0.2,0-0.4,0.1-0.6,0.1
		c-0.5-0.2-1-0.4-1.6-0.3c-1,0.1-1.8,0.6-2.2,1.3c-0.5-0.2-1.1-0.3-1.8-0.3c-2,0.2-3.5,1.7-3.7,3.5c-0.4-0.4-1-0.7-1.6-0.8
		c-0.8-1.3-2.2-2.1-3.8-2c-1.2,0.1-2.2,0.7-2.8,1.5c-0.4-0.1-0.7-0.1-1.1-0.1c-2.2,0.2-3.9,2.1-3.7,4.4c0,0.4,0.2,0.8,0.3,1.2
		c-0.1,0-0.1,0-0.2,0c-1.2,0.1-2.2,0.7-2.9,1.5c-0.3-0.1-0.7-0.2-1.1-0.1c-1.3,0.1-2.3,1-2.6,2.1c-0.3-0.1-0.6-0.1-0.9-0.1
		c-1.1,0.1-2,0.8-2.4,1.7c-1.5,0.7-2.4,2.3-2.3,4c0.1,0.7,0.3,1.4,0.7,1.9c-1,0.3-1.8,1.1-2.1,2.2c-1,0.8-1.7,2.1-1.5,3.5
		c0,0.5,0.2,0.9,0.3,1.3c-0.1,0.4-0.2,0.8-0.1,1.2c0.1,1.4,1.2,2.5,2.5,2.7c-0.3,0.6-0.5,1.2-0.5,1.9c-1.3,0.4-2.2,1.7-2,3
		c0,0.5,0.2,1,0.5,1.5c-0.5,0.7-0.8,1.7-0.7,2.6c0.2,2.2,2.1,3.9,4.4,3.7l71.4-1.4c1.6-0.1,2.9-1.6,2.7-3.2
		C164,394.2,162.6,393,160.9,393.1z"/>
	<g id="XMLID_291_" class="st5">
		<path id="XMLID_297_" class="st6" d="M91.8,316.3c-0.4,1.2-0.6,2.4-0.4,3.7c0.6,4.3,4.6,7.2,8.9,6.6c0,0,0,0,0.1,0
			c1.7,6.9,8.1,11.5,15.2,10.9c1.3,3.3,4.7,5.3,8.4,4.8c2.1-0.3,4-1.5,5.2-3.1c2,0.9,4.3,1.3,6.7,0.9c1.4-0.2,2.7-0.7,3.8-1.3
			c3,4.1,8.2,6.5,13.7,5.7c6.8-1,11.8-6.7,12.2-13.3c1.7,0.6,3.6,0.8,5.6,0.5c3-0.5,5.6-2,7.4-4.2c1.3,0.3,2.7,0.3,4.1,0.1
			c6.6-1,11.1-7.1,10.1-13.6c-0.2-1.5-0.7-2.9-1.5-4.2c0.6,0,1.1,0,1.7-0.1c4.3-0.6,7.2-4.6,6.6-8.9c-0.4-2.7-2.1-4.9-4.5-5.9
			c0.2-1.4,0.2-2.8,0-4.3c-0.2-1.2-0.5-2.4-1-3.5c2.5-3,3.8-7.1,3.2-11.3c-1.1-7.5-7.9-12.8-15.4-12.2c-2.4-5.2-7.6-8.5-13.5-8.4
			c-0.6-1.3-1.5-2.4-2.7-3.2c-0.7-1.5-1.7-2.8-2.8-3.8c0-0.5,0-1-0.1-1.5c-0.6-4.3-4.6-7.2-8.9-6.6c-1.6,0.2-3,0.9-4.1,1.9
			c-1.9-5.3-7.3-8.7-13.1-7.8c-0.1,0-0.3,0.1-0.4,0.1c-1.5-2.9-4.7-4.7-8.1-4.2c-4.3,0.6-7.2,4.6-6.6,8.9c0,0.1,0,0.2,0.1,0.2
			c-1.9,0.8-3.4,2.3-4.2,4.2c-5.2,2.8-8.4,8.6-7.5,14.8c0,0,0,0,0,0c-0.3,0-0.5,0.1-0.8,0.1c-6.2,0.9-10.9,5.8-12,11.7
			c-0.2,0-0.5,0-0.7,0.1c-4.3,0.6-7.2,4.6-6.6,8.9c0.2,1.1,0.5,2.1,1.1,2.9c-2.5,2.5-3.9,6.1-3.4,9.9c-3.7,3.1-5.8,8-5,13.2
			C83.5,310.3,87.1,314.5,91.8,316.3z"/>
		<path id="XMLID_296_" class="st7" d="M154.3,344.3c11.2-12.1,19.2-29.3,19.2-29.3l-5.2,0.8c0,0-3.7,11.7-11.5,18.9
			c-0.6,0.5-2.3,4.3-5.1,2.4c0,0,6-9.8,4.5-13.9l-2.8,0.4c0,0-0.4,7.6-7.5,12.7l-7-12.9c0,0-4.1-0.2-3.7,0.6
			c1.5,3.2,2.6,5.6,3.4,8.1c-4-4.3-5.8-5.9-9.2-7.9l-4.6-0.7c0,0,2.9,4.8,7.4,9.2c3,2.9,8.1,8,8.6,10.7c3.3,15.9,6.8,32.8,6.7,55
			l18-2.7C165.7,395.7,150.3,348.6,154.3,344.3z"/>
		<path id="XMLID_295_" class="st8" d="M83.2,298.5c0.8-2.6,2.4-4.9,4.5-6.7c-0.5-3.8,0.9-7.4,3.4-9.9c-0.5-0.9-0.9-1.9-1.1-2.9
			c-0.6-4.3,2.3-8.2,6.6-8.9c0.2,0,0.5-0.1,0.7-0.1c1-5.9,5.7-10.7,12-11.7c0.3,0,0.5-0.1,0.8-0.1c0,0,0,0,0,0
			c-0.9-6.2,2.3-12,7.5-14.8c0.8-1.9,2.3-3.4,4.2-4.2c0-0.1,0-0.2-0.1-0.2c-0.6-4.3,2.3-8.2,6.6-8.9c3.4-0.5,6.6,1.3,8.1,4.2
			c0.1,0,0.3-0.1,0.4-0.1c5.8-0.9,11.2,2.5,13.1,7.8c1.1-1,2.5-1.7,4.1-1.9c4.3-0.6,8.2,2.3,8.9,6.6c0.1,0.5,0.1,1,0.1,1.5
			c1.2,1.1,2.1,2.4,2.8,3.8c1.1,0.8,2.1,1.9,2.7,3.2c5.8-0.2,11.1,3.2,13.5,8.4c7.5-0.6,14.2,4.6,15.4,12.2c0.4,2.7,0,5.3-1,7.7
			c-0.1,0.3-0.3,0.6-0.4,0.9c0,0,0,0,0,0c-0.2,0.3-0.3,0.6-0.5,0.9c0,0,0,0,0,0c-0.2,0.3-0.3,0.5-0.5,0.8c0,0.1-0.1,0.1-0.1,0.2
			c-0.2,0.3-0.4,0.5-0.6,0.8c0.5,1.1,0.8,2.3,1,3.5c0.1,0.4,0.1,0.7,0.1,1.1c0,0.3,0,0.6,0,0.9c0,0,0,0.1,0,0.1
			c0,0.7-0.1,1.4-0.1,2.1c0,0,0,0,0,0c-1,0.8-2.3,1.4-3.7,1.6c-0.6,0.1-1.1,0.1-1.7,0.1c0.7,1.3,1.3,2.7,1.5,4.3
			c1,6.6-3.6,12.8-10.2,13.8c-1.4,0.2-2.8,0.2-4.1-0.1c-1.8,2.2-4.4,3.8-7.5,4.2c-2,0.3-3.9,0.1-5.6-0.5
			c-0.4,6.7-5.4,12.4-12.3,13.4c-5.5,0.8-10.7-1.6-13.8-5.8c-1.2,0.6-2.5,1.1-3.9,1.3c-2.4,0.4-4.7,0-6.7-0.9
			c-1.2,1.6-3,2.8-5.2,3.1c-3.7,0.5-7.1-1.5-8.4-4.8c-7.1,0.6-13.6-4.1-15.3-11c0,0,0,0-0.1,0c-4.3,0.6-8.3-2.3-9-6.6
			c-0.2-1.3-0.1-2.6,0.4-3.8C87,302.1,84.8,300.5,83.2,298.5z"/>
		<path id="XMLID_294_" class="st9" d="M137.5,287.8c-0.2,0.6-0.3,1.3-0.2,1.9c0.3,2.2,2.4,3.7,4.6,3.4c0,0,0,0,0,0
			c0.9,3.5,4.2,6,7.8,5.6c0.7,1.7,2.4,2.7,4.3,2.5c1.1-0.2,2-0.8,2.7-1.6c1,0.5,2.2,0.7,3.4,0.5c0.7-0.1,1.4-0.3,2-0.7
			c1.6,2.1,4.2,3.4,7.1,2.9c3.5-0.5,6.1-3.5,6.3-6.9c0.9,0.3,1.9,0.4,2.9,0.3c1.6-0.2,2.9-1,3.8-2.2c0.7,0.1,1.4,0.2,2.1,0.1
			c3.4-0.5,5.7-3.7,5.2-7c-0.1-0.8-0.4-1.5-0.8-2.2c0.3,0,0.6,0,0.9,0c2.2-0.3,3.7-2.4,3.4-4.6c-0.2-1.4-1.1-2.5-2.3-3.1
			c0.1-0.7,0.1-1.5,0-2.2c-0.1-0.6-0.3-1.3-0.5-1.8c1.3-1.6,2-3.6,1.6-5.8c-0.6-3.9-4.1-6.6-7.9-6.3c-1.2-2.7-3.9-4.4-6.9-4.3
			c-0.3-0.7-0.8-1.2-1.4-1.6c-0.4-0.8-0.9-1.4-1.5-2c0-0.3,0-0.5,0-0.8c-0.3-2.2-2.4-3.7-4.6-3.4c-0.8,0.1-1.5,0.5-2.1,1
			c-1-2.7-3.8-4.5-6.7-4c-0.1,0-0.1,0-0.2,0c-0.8-1.5-2.4-2.4-4.2-2.2c-2.2,0.3-3.7,2.4-3.4,4.6c0,0,0,0.1,0,0.1
			c-1,0.4-1.8,1.2-2.2,2.2c-2.7,1.4-4.3,4.4-3.9,7.6c0,0,0,0,0,0c-0.1,0-0.3,0-0.4,0c-3.2,0.5-5.6,3-6.2,6c-0.1,0-0.3,0-0.4,0
			c-2.2,0.3-3.7,2.4-3.4,4.6c0.1,0.6,0.3,1.1,0.5,1.5c-1.3,1.3-2,3.2-1.7,5.1c-1.9,1.6-3,4.1-2.6,6.8
			C133.2,284.8,135.1,286.9,137.5,287.8z"/>
		<path id="XMLID_293_" class="st9" d="M85.4,305.3c-0.2,0.6-0.3,1.3-0.2,1.9c0.3,2.2,2.4,3.7,4.6,3.4c0,0,0,0,0,0
			c0.9,3.5,4.2,6,7.8,5.6c0.7,1.7,2.4,2.7,4.3,2.5c1.1-0.2,2-0.8,2.7-1.6c1,0.5,2.2,0.7,3.4,0.5c0.7-0.1,1.4-0.3,2-0.7
			c1.6,2.1,4.2,3.4,7.1,2.9c3.5-0.5,6.1-3.5,6.3-6.9c0.9,0.3,1.9,0.4,2.9,0.3c1.6-0.2,2.9-1,3.8-2.2c0.7,0.1,1.4,0.2,2.1,0.1
			c3.4-0.5,5.7-3.7,5.2-7c-0.1-0.8-0.4-1.5-0.8-2.2c0.3,0,0.6,0,0.9,0c2.2-0.3,3.7-2.4,3.4-4.6c-0.2-1.4-1.1-2.5-2.3-3.1
			c0.1-0.7,0.1-1.5,0-2.2c-0.1-0.6-0.3-1.3-0.5-1.8c1.3-1.6,2-3.6,1.6-5.8c-0.6-3.9-4.1-6.6-7.9-6.3c-1.2-2.7-3.9-4.4-6.9-4.3
			c-0.3-0.7-0.8-1.2-1.4-1.6c-0.4-0.8-0.9-1.4-1.5-2c0-0.3,0-0.5,0-0.8c-0.3-2.2-2.4-3.7-4.6-3.4c-0.8,0.1-1.5,0.5-2.1,1
			c-1-2.7-3.8-4.5-6.7-4c-0.1,0-0.1,0-0.2,0c-0.8-1.5-2.4-2.4-4.2-2.2c-2.2,0.3-3.7,2.4-3.4,4.6c0,0,0,0.1,0,0.1
			c-1,0.4-1.8,1.2-2.2,2.2c-2.7,1.4-4.3,4.4-3.9,7.6c0,0,0,0,0,0c-0.1,0-0.3,0-0.4,0c-3.2,0.5-5.6,3-6.2,6c-0.1,0-0.3,0-0.4,0
			c-2.2,0.3-3.7,2.4-3.4,4.6c0.1,0.6,0.3,1.1,0.5,1.5c-1.3,1.3-2,3.2-1.7,5.1c-1.9,1.6-3,4.1-2.6,6.8
			C81.1,302.2,83,304.4,85.4,305.3z"/>
		<path id="XMLID_292_" class="st10" d="M111.1,281.8c-0.2,0.6-0.3,1.3-0.2,1.9c0.3,2.2,2.4,3.7,4.6,3.4c0,0,0,0,0,0
			c0.9,3.5,4.2,6,7.8,5.6c0.7,1.7,2.4,2.7,4.3,2.5c1.1-0.2,2-0.8,2.7-1.6c1,0.5,2.2,0.7,3.4,0.5c0.7-0.1,1.4-0.3,2-0.7
			c1.6,2.1,4.2,3.4,7.1,2.9c3.5-0.5,6.1-3.5,6.3-6.9c0.9,0.3,1.9,0.4,2.9,0.3c1.6-0.2,2.9-1,3.8-2.2c0.7,0.1,1.4,0.2,2.1,0.1
			c3.4-0.5,5.7-3.7,5.2-7c-0.1-0.8-0.4-1.5-0.8-2.2c0.3,0,0.6,0,0.9,0c2.2-0.3,3.7-2.4,3.4-4.6c-0.2-1.4-1.1-2.5-2.3-3.1
			c0.1-0.7,0.1-1.5,0-2.2c-0.1-0.6-0.3-1.3-0.5-1.8c1.3-1.6,2-3.6,1.6-5.8c-0.6-3.9-4.1-6.6-7.9-6.3c-1.2-2.7-3.9-4.4-6.9-4.3
			c-0.3-0.7-0.8-1.2-1.4-1.6c-0.4-0.8-0.9-1.4-1.5-2c0-0.3,0-0.5,0-0.8c-0.3-2.2-2.4-3.7-4.6-3.4c-0.8,0.1-1.5,0.5-2.1,1
			c-1-2.7-3.8-4.5-6.7-4c-0.1,0-0.1,0-0.2,0c-0.8-1.5-2.4-2.4-4.2-2.2c-2.2,0.3-3.7,2.4-3.4,4.6c0,0,0,0.1,0,0.1
			c-1,0.4-1.8,1.2-2.2,2.2c-2.7,1.4-4.3,4.4-3.9,7.6c0,0,0,0,0,0c-0.1,0-0.3,0-0.4,0c-3.2,0.5-5.6,3-6.2,6c-0.1,0-0.3,0-0.4,0
			c-2.2,0.3-3.7,2.4-3.4,4.6c0.1,0.6,0.3,1.1,0.5,1.5c-1.3,1.3-2,3.2-1.7,5.1c-1.9,1.6-3,4.1-2.6,6.8
			C106.8,278.7,108.7,280.9,111.1,281.8z"/>
	</g>
	<path id="XMLID_290_" class="st25" d="M98.2,374.9c-0.4,0-0.7,0.1-1,0.3c-0.5-0.9-1.3-1.6-2.3-2c0-0.1,0-0.2,0-0.3
		c-0.1-1.6-1.6-2.9-3.2-2.7c-0.4,0-0.7,0.1-1,0.3c0.3-0.5,0.4-1.1,0.4-1.7c0-0.2-0.1-0.4-0.1-0.6c0,0,0,0,0.1,0
		c1.6-0.1,2.9-1.6,2.7-3.2c-0.1-1.6-1.6-2.9-3.2-2.7c-0.1,0-0.1,0-0.2,0c-0.8-0.6-1.8-1-2.9-0.9c-0.3,0-0.6,0.1-0.8,0.2
		c0,0,0-0.1,0-0.1c-0.1-1.3-1-2.3-2.1-2.6c0-0.1,0-0.1,0-0.2c0-0.5-0.2-1-0.4-1.4c0.1-0.4,0.2-0.8,0.2-1.2c-0.1-1.6-1.6-2.9-3.2-2.7
		c-0.6,0-1.2,0.3-1.6,0.7c-0.2-0.2-0.4-0.3-0.6-0.4c-0.2-1.2-0.9-2.2-1.9-2.8c-0.3-1.4-1.4-2.5-2.7-2.9c-0.3-1.4-1.6-2.4-3.1-2.3
		c-0.4,0-0.7,0.1-1.1,0.3c-0.8-0.7-1.9-1.2-3.1-1.1c-1.2,0.1-2.3,0.8-3,1.7c-0.3-0.2-0.7-0.3-1-0.4c-0.2-1.5-1.6-2.7-3.2-2.5
		c-0.7,0.1-1.3,0.4-1.8,0.8c-0.4-0.1-0.7-0.1-1.1-0.1c-0.4,0-0.8,0.2-1.2,0.3c-0.3-0.7-0.9-1.3-1.6-1.6c0,0,0-0.1,0-0.1
		c-0.1-1.6-1.6-2.9-3.2-2.7c-0.4,0-0.7,0.1-1.1,0.3c-0.8-0.7-1.9-1.2-3.1-1.1c-1.1,0.1-2,0.6-2.6,1.3c-0.7-1.2-1.9-2-3.3-2.1
		c-0.8-1-2.1-1.5-3.4-1.4c-0.6,0-1.1,0.2-1.6,0.5c-0.4-0.2-0.9-0.2-1.3-0.2c-1.2,0.1-2.1,0.9-2.5,1.9c-1.1,0.3-2,1.1-2.5,2.1
		c-0.7-0.3-1.4-0.5-2.2-0.4c0,0,0,0,0,0c-0.6-0.4-1.3-0.7-2-0.6c-0.7,0.1-1.4,0.4-1.8,0.8c-0.8-0.7-1.9-1.1-3-1c-0.1,0-0.1,0-0.2,0
		c-0.6-0.3-1.3-0.4-2-0.4c-1.4,0.1-2.6,0.9-3.2,2c-0.9,0.4-1.5,1.1-1.8,2.1c-1.1,0.3-2,1.2-2.2,2.3c-0.8-1-2.1-1.6-3.4-1.5
		c-0.8,0.1-1.5,0.3-2.1,0.8c-0.2,0-0.4,0-0.7,0c-1.5,0.1-2.7,1.4-2.7,2.8c-0.6,0.8-1,1.8-0.9,2.9c0.1,0.8,0.4,1.6,0.8,2.2
		c-2,0.4-3.5,2.2-3.3,4.3c0,0,0,0,0,0.1c-0.2,0-0.5,0-0.7,0c-2.2,0.2-3.9,2.1-3.7,4.4c0.1,1.2,0.7,2.3,1.7,2.9
		c-0.8,0.6-1.3,1.6-1.2,2.6c0,0,0,0,0,0.1c-0.2,0-0.3,0-0.5,0c-2.2,0.2-3.9,2.1-3.7,4.4c0.1,1.6,1.2,2.9,2.6,3.5
		c-0.7,0.6-1.1,1.5-1,2.5c0.1,1,0.7,1.9,1.5,2.3c0,0,0,0,0,0c0.2,2.2,2.1,3.9,4.4,3.7l96.1-3l4.7-0.3c1.6-0.1,2.9-1.6,2.7-3.2
		S99.8,374.8,98.2,374.9z"/>
	<path id="XMLID_289_" class="st24" d="M294.1,409.9c-0.7-1.1-1.9-1.9-3.3-1.9c-0.4-1.2-1.3-2.1-2.5-2.5c0.3-0.5,0.5-1.1,0.6-1.8
		c1.3-0.4,2.2-1.7,2.1-3.1c-0.1-1.2-0.9-2.2-2-2.6c0-0.1,0-0.2,0-0.2c-0.1-1.4-1.1-2.4-2.4-2.7c0,0,0-0.1,0-0.1
		c-0.1-1.2-0.7-2.1-1.5-2.8c0.1-0.3,0.1-0.6,0.1-0.9c-0.1-1.6-1.6-2.9-3.2-2.7c-0.1-1.1-0.6-2.1-1.4-2.8c0.1-0.4,0.1-0.8,0.1-1.2
		c-0.2-2.2-2.1-3.9-4.4-3.7c-0.8,0.1-1.6,0.4-2.2,0.9c0,0,0,0,0-0.1c0-0.5-0.2-0.9-0.4-1.4c0.4-0.5,0.6-1.2,0.5-1.9
		c-0.1-1.6-1.6-2.9-3.2-2.7c-0.4,0-0.7,0.1-1.1,0.3c-0.8-0.7-1.9-1.2-3.1-1.1c-0.1,0-0.1,0-0.2,0c-0.6-0.6-1.4-1-2.4-0.9
		c-0.4,0-0.7,0.1-1.1,0.3c-0.8-0.7-1.9-1.2-3.1-1.1c-1.2,0.1-2.2,0.7-2.8,1.5c-0.4-0.1-0.7-0.1-1.1-0.1c-0.4,0-0.8,0.2-1.2,0.3
		c-0.5-1.2-1.7-2-3-1.9c-0.4,0-0.7,0.1-1.1,0.3c-0.8-0.7-1.9-1.2-3.1-1.1c-1.1,0.1-2,0.6-2.7,1.4c-1.4,0.3-2.4,1.6-2.3,3.1
		c0,0.1,0,0.2,0.1,0.3c-1,0.6-1.6,1.6-1.5,2.8c0,0.5,0.2,1,0.5,1.4c-0.1,0-0.3,0-0.4,0c-0.7,0.1-1.3,0.4-1.8,0.8
		c-0.7-0.4-1.4-0.6-2.3-0.5c-2.1,0.2-3.7,1.9-3.7,3.9c-1,0.4-1.8,1.4-1.8,2.6c-0.7-0.4-1.5-0.6-2.4-0.5c-2.2,0.2-3.9,2.1-3.7,4.4
		c0.1,1.5,1,2.7,2.2,3.3c-0.2,0.5-0.3,1.1-0.2,1.7c0,0.5,0.2,0.9,0.3,1.3c-1.1,0.5-1.8,1.6-1.7,2.9c0,0.3,0.1,0.5,0.2,0.7
		c0,0-0.1,0-0.1,0c-2.2,0.2-3.9,2.1-3.7,4.4c0.2,2.2,2.1,3.9,4.4,3.7l62.5,6c0.4,0.1,0.8,0.2,1.3,0.1l3-0.3c1.6-0.1,2.9-1.6,2.7-3.2
		C296.5,411.1,295.5,410.1,294.1,409.9z"/>
	<g id="XMLID_282_" class="st5">
		<path id="XMLID_288_" class="st6" d="M143.9,242c0.9-8-2.5-15.6-8.5-20.2c0.6-5.9-1.7-11.4-5.7-15.3c0.8-1.4,1.3-2.9,1.5-4.6
			c0.8-6.7-4-12.7-10.6-13.4c-0.4,0-0.8-0.1-1.2-0.1c-1.9-9.1-9.5-16.4-19.2-17.5c-0.4,0-0.8-0.1-1.2-0.1c0,0,0,0,0,0
			c1.1-9.7-4.1-18.6-12.4-22.6c-1.3-2.9-3.7-5.2-6.7-6.3c0-0.1,0-0.3,0.1-0.4c0.8-6.7-4-12.7-10.6-13.4c-5.3-0.6-10.2,2.3-12.4,6.9
			c-0.2,0-0.4-0.1-0.6-0.1c-9-1-17.3,4.5-19.9,12.8c-1.8-1.5-3.9-2.5-6.4-2.8c-6.7-0.8-12.7,4-13.4,10.6c-0.1,0.8-0.1,1.6,0,2.4
			c-1.8,1.7-3.2,3.8-4.2,6.1c-1.7,1.3-3.1,3-4,5.1c-9,0-17.1,5.5-20.5,13.6c-11.6-0.6-21.9,7.9-23.3,19.7
			c-0.8,6.6,1.4,12.8,5.5,17.4c-0.7,1.7-1.2,3.6-1.4,5.5c-0.3,2.3-0.2,4.5,0.2,6.7c-3.5,1.8-6.1,5.2-6.6,9.4
			c-0.8,6.7,4,12.7,10.6,13.4c0.9,0.1,1.8,0.1,2.6,0c-1.1,2-1.8,4.2-2.1,6.6c-1.2,10.2,6.1,19.5,16.4,20.7c2.2,0.3,4.3,0.1,6.4-0.4
			c2.9,3.3,7,5.6,11.7,6.1c3,0.4,6-0.1,8.7-1.1c0.9,10.3,8.9,18.8,19.6,20.1c8.5,1,16.4-2.9,20.9-9.5c1.9,0.9,3.9,1.5,6,1.8
			c3.7,0.4,7.2-0.3,10.3-1.8c1.9,2.5,4.8,4.2,8.2,4.6c5.7,0.7,10.9-2.7,12.8-7.8c11,0.6,20.8-6.9,23-17.7c0,0,0.1,0,0.1,0
			c6.7,0.8,12.7-4,13.4-10.6c0.2-2,0-4-0.7-5.8C137.5,257.1,143,250.3,143.9,242z"/>
		<path id="XMLID_287_" class="st7" d="M52.2,297.4c-2.5,25.1-5.8,58.4-4.6,92.9L19.4,387c0,0,18.6-82.8,12.1-89.4
			C13.5,279.3,3.3,262,3.3,262l8.1,0.9c0,0,3.2,15.2,18.1,23.7c1.1,0.6,8.5,4,9.3,3.1c1.3-1.4,3.5-6.9,5.6-13.4l4.4,0.5
			c0,0-3.9,11.5-2.5,14.5c1.4,3.1,22.4-16.6,22.4-16.6l10.7-2C79.3,272.9,52.9,290.4,52.2,297.4z"/>
		<path id="XMLID_286_" class="st8" d="M142.8,232c-1.4-4-4-7.6-7.4-10.2c0.6-5.9-1.7-11.4-5.7-15.3c0.8-1.4,1.3-2.9,1.5-4.6
			c0.8-6.7-4-12.7-10.6-13.4c-0.4,0-0.8-0.1-1.2-0.1c-1.9-9.1-9.5-16.4-19.2-17.5c-0.4,0-0.8-0.1-1.2-0.1c0,0,0,0,0,0
			c1.1-9.7-4.1-18.6-12.4-22.6c-1.3-2.9-3.7-5.2-6.7-6.3c0-0.1,0-0.3,0.1-0.4c0.8-6.7-4-12.7-10.6-13.4c-5.3-0.6-10.2,2.3-12.4,6.9
			c-0.2,0-0.4-0.1-0.6-0.1c-9-1-17.3,4.5-19.9,12.8c-1.8-1.5-3.9-2.5-6.4-2.8c-6.7-0.8-12.7,4-13.4,10.6c-0.1,0.8-0.1,1.6,0,2.4
			c-1.8,1.7-3.2,3.8-4.2,6.1c-1.7,1.3-3.1,3-4,5.1c-9,0-17.1,5.5-20.5,13.6c-11.6-0.6-21.9,7.9-23.3,19.7c-0.5,4.2,0.2,8.3,1.9,11.9
			c0.2,0.5,0.5,1,0.7,1.4c0,0,0,0,0,0.1c0.3,0.5,0.5,0.9,0.8,1.4c0,0,0,0,0,0c0.3,0.4,0.5,0.8,0.8,1.2c0.1,0.1,0.1,0.2,0.2,0.3
			c0.3,0.4,0.6,0.8,0.9,1.1c-0.7,1.7-1.2,3.6-1.4,5.5c-0.1,0.6-0.1,1.1-0.1,1.7c0,0.5,0,0.9,0,1.4c0,0.1,0,0.2,0,0.2
			c0,1.1,0.1,2.1,0.3,3.2c0,0,0,0,0,0c1.6,1.2,3.6,2,5.8,2.3c0.9,0.1,1.8,0.1,2.6,0c-1.1,2-1.8,4.3-2.1,6.7
			c-1.2,10.3,6.2,19.7,16.5,20.9c2.2,0.3,4.4,0.1,6.4-0.4c3,3.3,7.1,5.6,11.8,6.2c3.1,0.4,6-0.1,8.7-1.1c0.9,10.4,9,19,19.8,20.2
			c8.6,1,16.6-3,21.1-9.6c1.9,0.9,3.9,1.6,6.1,1.8c3.7,0.4,7.3-0.3,10.4-1.8c1.9,2.5,4.8,4.2,8.2,4.6c5.7,0.7,11-2.7,12.9-7.9
			c11.1,0.6,21-7,23.2-17.8c0,0,0.1,0,0.1,0c6.7,0.8,12.8-4,13.6-10.7c0.2-2,0-4-0.7-5.8C137.1,237.7,140.4,235.2,142.8,232z"/>
		<path id="XMLID_285_" class="st9" d="M64.9,208.8c0.5-4.1-1.3-8-4.4-10.4c0.3-3-0.9-5.9-3-7.9c0.4-0.7,0.7-1.5,0.8-2.4
			c0.4-3.4-2.1-6.5-5.5-6.9c-0.2,0-0.4,0-0.6,0c-1-4.7-4.9-8.5-9.9-9c-0.2,0-0.4,0-0.6-0.1c0,0,0,0,0,0c0.6-5-2.1-9.6-6.4-11.7
			c-0.7-1.5-1.9-2.7-3.5-3.3c0-0.1,0-0.1,0-0.2c0.4-3.4-2.1-6.5-5.5-6.9c-2.7-0.3-5.3,1.2-6.4,3.5c-0.1,0-0.2,0-0.3-0.1
			c-4.6-0.5-8.9,2.3-10.3,6.6c-0.9-0.8-2-1.3-3.3-1.4c-3.4-0.4-6.5,2.1-6.9,5.5c0,0.4-0.1,0.8,0,1.2c-0.9,0.9-1.7,1.9-2.2,3.1
			c-0.9,0.7-1.6,1.6-2.1,2.6c-4.7,0-8.8,2.8-10.6,7c-6-0.3-11.3,4.1-12,10.1c-0.4,3.4,0.7,6.6,2.8,9c-0.4,0.9-0.6,1.9-0.7,2.9
			c-0.1,1.2-0.1,2.3,0.1,3.4c-1.8,0.9-3.2,2.7-3.4,4.9c-0.4,3.4,2.1,6.5,5.5,6.9c0.5,0.1,0.9,0.1,1.4,0c-0.6,1-0.9,2.2-1.1,3.4
			c-0.6,5.3,3.2,10.1,8.4,10.7c1.1,0.1,2.2,0.1,3.3-0.2c1.5,1.7,3.6,2.9,6.1,3.2c1.6,0.2,3.1,0,4.5-0.5c0.5,5.3,4.6,9.7,10.1,10.4
			c4.4,0.5,8.5-1.5,10.8-4.9c1,0.5,2,0.8,3.1,0.9c1.9,0.2,3.7-0.1,5.3-0.9c1,1.3,2.5,2.2,4.2,2.4c2.9,0.3,5.6-1.4,6.6-4
			c5.7,0.3,10.7-3.6,11.9-9.1c0,0,0,0,0,0c3.4,0.4,6.5-2.1,6.9-5.5c0.1-1,0-2.1-0.4-3C61.6,216.6,64.4,213.1,64.9,208.8z"/>
		<path id="XMLID_284_" class="st9" d="M146.8,233.3c0.5-4.1-1.3-8-4.4-10.4c0.3-3-0.9-5.9-3-7.9c0.4-0.7,0.7-1.5,0.8-2.4
			c0.4-3.4-2.1-6.5-5.5-6.9c-0.2,0-0.4,0-0.6,0c-1-4.7-4.9-8.5-9.9-9c-0.2,0-0.4,0-0.6-0.1c0,0,0,0,0,0c0.6-5-2.1-9.6-6.4-11.7
			c-0.7-1.5-1.9-2.7-3.5-3.3c0-0.1,0-0.1,0-0.2c0.4-3.4-2.1-6.5-5.5-6.9c-2.7-0.3-5.3,1.2-6.4,3.5c-0.1,0-0.2,0-0.3-0.1
			c-4.6-0.5-8.9,2.3-10.3,6.6c-0.9-0.8-2-1.3-3.3-1.4c-3.4-0.4-6.5,2.1-6.9,5.5c0,0.4-0.1,0.8,0,1.2c-0.9,0.9-1.7,1.9-2.2,3.1
			c-0.9,0.7-1.6,1.6-2.1,2.6c-4.7,0-8.8,2.8-10.6,7c-6-0.3-11.3,4.1-12,10.1c-0.4,3.4,0.7,6.6,2.8,9c-0.4,0.9-0.6,1.9-0.7,2.9
			c-0.1,1.2-0.1,2.3,0.1,3.4c-1.8,0.9-3.2,2.7-3.4,4.9c-0.4,3.4,2.1,6.5,5.5,6.9c0.5,0.1,0.9,0.1,1.4,0c-0.6,1-0.9,2.2-1.1,3.4
			c-0.6,5.3,3.2,10.1,8.4,10.7c1.1,0.1,2.2,0.1,3.3-0.2c1.5,1.7,3.6,2.9,6.1,3.2c1.6,0.2,3.1,0,4.5-0.5c0.5,5.3,4.6,9.7,10.1,10.4
			c4.4,0.5,8.5-1.5,10.8-4.9c1,0.5,2,0.8,3.1,0.9c1.9,0.2,3.7-0.1,5.3-0.9c1,1.3,2.5,2.2,4.2,2.4c2.9,0.3,5.6-1.4,6.6-4
			c5.7,0.3,10.7-3.6,11.9-9.1c0,0,0,0,0,0c3.4,0.4,6.5-2.1,6.9-5.5c0.1-1,0-2.1-0.4-3C143.4,241.1,146.3,237.6,146.8,233.3z"/>
		<path id="XMLID_283_" class="st10" d="M105.6,198.1c0.5-4.1-1.3-8-4.4-10.4c0.3-3-0.9-5.9-3-7.9c0.4-0.7,0.7-1.5,0.8-2.4
			c0.4-3.4-2.1-6.5-5.5-6.9c-0.2,0-0.4,0-0.6,0c-1-4.7-4.9-8.5-9.9-9c-0.2,0-0.4,0-0.6-0.1c0,0,0,0,0,0c0.6-5-2.1-9.6-6.4-11.7
			c-0.7-1.5-1.9-2.7-3.5-3.3c0-0.1,0-0.1,0-0.2c0.4-3.4-2.1-6.5-5.5-6.9c-2.7-0.3-5.3,1.2-6.4,3.5c-0.1,0-0.2,0-0.3-0.1
			c-4.6-0.5-8.9,2.3-10.3,6.6c-0.9-0.8-2-1.3-3.3-1.4c-3.4-0.4-6.5,2.1-6.9,5.5c0,0.4-0.1,0.8,0,1.2c-0.9,0.9-1.7,1.9-2.2,3.1
			c-0.9,0.7-1.6,1.6-2.1,2.6c-4.7,0-8.8,2.8-10.6,7c-6-0.3-11.3,4.1-12,10.1c-0.4,3.4,0.7,6.6,2.8,9c-0.4,0.9-0.6,1.9-0.7,2.9
			c-0.1,1.2-0.1,2.3,0.1,3.4c-1.8,0.9-3.2,2.7-3.4,4.9c-0.4,3.4,2.1,6.5,5.5,6.9c0.5,0.1,0.9,0.1,1.4,0c-0.6,1-0.9,2.2-1.1,3.4
			c-0.6,5.3,3.2,10.1,8.4,10.7c1.1,0.1,2.2,0.1,3.3-0.2c1.5,1.7,3.6,2.9,6.1,3.2c1.6,0.2,3.1,0,4.5-0.5c0.5,5.3,4.6,9.7,10.1,10.4
			c4.4,0.5,8.5-1.5,10.8-4.9c1,0.5,2,0.8,3.1,0.9c1.9,0.2,3.7-0.1,5.3-0.9c1,1.3,2.5,2.2,4.2,2.4c2.9,0.3,5.6-1.4,6.6-4
			c5.7,0.3,10.7-3.6,11.9-9.1c0,0,0,0,0,0c3.4,0.4,6.5-2.1,6.9-5.5c0.1-1,0-2.1-0.4-3C102.3,205.9,105.1,202.4,105.6,198.1z"/>
	</g>
	<path id="XMLID_281_" class="st25" d="M247.8,391.5c-0.5-1.2-1.7-2-3-1.9c-0.7,0.1-1.3,0.3-1.7,0.7c-0.4-0.1-0.8-0.2-1.2-0.2
		c0,0,0,0,0,0c0,0,0,0,0,0c-0.1-1.3-0.8-2.3-1.7-3c0.4-0.5,0.6-1.2,0.5-1.9c-0.1-1.6-1.6-2.9-3.2-2.7c-0.2,0-0.4,0.1-0.7,0.1
		c-0.8-1-2.1-1.7-3.5-1.6c-0.1,0-0.2,0-0.3,0c0.1-0.4,0.2-0.8,0.2-1.3c-0.1-1.2-1-2.3-2.1-2.6c0,0,0-0.1,0-0.1
		c-0.2-2.2-2.1-3.9-4.4-3.7c-1,0.1-1.9,0.6-2.6,1.2c-0.6-0.6-1.4-0.9-2.3-0.8c-0.1,0-0.1,0-0.2,0c-0.2-0.7-0.6-1.3-1.1-1.7
		c0.1-0.3,0.1-0.6,0.1-0.9c-0.1-1.6-1.6-2.9-3.2-2.7c-1.1,0.1-2,0.8-2.5,1.8c-0.2,0-0.3,0-0.5,0c-0.4,0-0.8,0.2-1.2,0.3
		c-0.5-1.2-1.7-2-3-1.9c-1.1,0.1-2,0.8-2.4,1.7c-0.5-0.2-1-0.2-1.5-0.2c-0.4,0-0.8,0.1-1.1,0.3c-0.1-0.5-0.3-0.9-0.5-1.3
		c0.2-0.5,0.4-1,0.3-1.6c-0.1-1.6-1.6-2.9-3.2-2.7c-0.6,0.1-1.2,0.3-1.7,0.7c-0.7-0.4-1.5-0.6-2.4-0.6c-0.2-2.2-2.1-3.9-4.4-3.7
		c-0.1,0-0.1,0-0.2,0c-0.5-1.1-1.6-1.8-2.9-1.7c-0.9,0.1-1.6,0.5-2.1,1.2c-0.2,0-0.5,0-0.7,0c-1.2,0.1-2.1,0.7-2.8,1.5
		c-0.5-1.9-2.3-3.1-4.2-3c-1.1,0.1-2,0.6-2.7,1.3c-0.1,0-0.1,0-0.2,0c-1.3,0.1-2.4,1.1-2.6,2.3c-0.6-0.5-1.4-0.7-2.2-0.8
		c-0.6-0.6-1.5-1-2.4-0.9c-0.1,0-0.1,0-0.2,0c-0.8-0.6-1.8-1-2.9-0.9c-0.6,0-1.1,0.2-1.6,0.5c-0.6-0.7-1.5-1.1-2.5-1.1
		c-0.1,0-0.1,0-0.2,0c-0.5-1.2-1.7-1.9-3-1.8c-1.6,0.1-2.9,1.6-2.7,3.2c0,0.2,0,0.3,0.1,0.4c-1.3,0.8-2.1,2.2-2,3.8
		c0,0.5,0.2,0.9,0.4,1.3c-1.4,0.7-2.3,2.2-2.2,3.8c-0.4-0.2-0.8-0.2-1.3-0.2c-1.6,0.1-2.9,1.6-2.7,3.2c0,0.5,0.2,1,0.5,1.4
		c-0.9,0.4-1.6,1.2-2,2c-0.5-0.2-1.1-0.3-1.7-0.2c-1.3,0.1-2.4,0.8-3.1,1.8c-0.5-0.3-1.1-0.4-1.7-0.4c-1,0.1-1.8,0.6-2.3,1.4
		c-0.2,0-0.4,0-0.6,0c-1.5,0.1-2.7,1.4-2.7,2.9c-0.5,0.6-0.7,1.3-0.7,2.1c0.1,1.6,1.6,2.9,3.2,2.7l107.2,11.7
		c0.5,0.1,0.9,0.2,1.5,0.2c2.2-0.2,3.9-2.1,3.7-4.4C250.8,393.4,249.5,391.9,247.8,391.5z"/>
	<path id="XMLID_280_" class="st26" d="M-8.8,381c0,0,276.4-6.3,462.9,46.9v82.1H-8.8V381z"/>
	<path id="XMLID_279_" class="st27" d="M766.4,388.5c0,0-359.8,11.9-543.6,121.4h543.6V388.5z"/>
	<path id="XMLID_278_" class="st28" d="M604.8,524.4c0,0,0.1,0,0.1,0c0.4-2.8,2.2-5.1,4.6-6.3c-0.4-0.8-0.6-1.7-0.6-2.7
		c0-1.8,0.8-3.4,2.1-4.6c-0.1-0.5-0.2-1-0.2-1.5c0-1.9,0.9-3.5,2.2-4.6c-1.4-1.5-2.2-3.4-2.2-5.6c0-4.5,3.7-8.2,8.2-8.2
		c-1.2-1.1-1.9-2.7-1.9-4.4c0-0.3,0-0.6,0.1-0.9c-2.4-0.8-4.1-3-4.1-5.7c0-2.5,1.6-4.7,3.8-5.6c0-4.3,3.4-7.8,7.6-8.1
		c-0.4-1-0.6-2.1-0.6-3.2c0-4.6,3.7-8.3,8.3-8.3c0.2,0,0.3,0,0.5,0.1c1-0.8,2.3-1.3,3.7-1.3c1.6,0,3,0.6,4,1.6
		c0.6-0.2,1.3-0.3,2-0.3c1.6,0,3,0.5,4.3,1.2c1.1-2.4,3.3-4.2,6-4.6c0.2-3.2,2.8-5.7,6-5.7c1.9,0,3.5,0.9,4.6,2.2
		c0.9-0.3,1.9-0.5,2.9-0.5c1.2,0,2.4,0.3,3.5,0.8c1.1-1.5,2.8-2.4,4.8-2.4c0.4,0,0.8,0,1.2,0.1c0.9-0.5,2-0.9,3.1-0.9
		c1.9,0,3.6,0.9,4.7,2.3c1.1-0.5,2.3-0.8,3.5-0.8c4,0,7.3,2.8,8.1,6.5c0.8-0.9,1.9-1.6,3.1-1.9c1.3-2.7,4.1-4.7,7.4-4.7
		c2.4,0,4.5,1,6,2.6c0.7-0.2,1.5-0.4,2.3-0.4c4.6,0,8.3,3.7,8.3,8.3c0,0.9-0.2,1.7-0.4,2.5c0.1,0,0.3,0,0.4,0c2.4,0,4.5,1,6,2.7
		c0.7-0.3,1.4-0.4,2.2-0.4c2.6,0,4.7,1.6,5.6,3.9c0.6-0.2,1.2-0.3,1.9-0.3c2.2,0,4.2,1.2,5.2,3.1c3.1,1.2,5.3,4.2,5.3,7.7
		c0,1.5-0.4,2.8-1.1,4c2.1,0.4,3.9,2,4.5,4c2.2,1.5,3.7,4,3.7,6.9c0,0.9-0.2,1.8-0.5,2.6c0.3,0.7,0.5,1.5,0.5,2.3
		c0,2.9-2,5.3-4.7,5.9c0.7,1.1,1.1,2.3,1.2,3.7c2.6,0.6,4.6,3,4.6,5.8c0,1.1-0.3,2.1-0.8,3c1.2,1.4,1.9,3.2,1.9,5.2
		c0,4.6-3.7,8.3-8.3,8.3l-144.5,8.7c-3.3,0-6-2.7-6-6C598.8,527.1,601.5,524.4,604.8,524.4z"/>
	<path id="XMLID_202_" class="st29" d="M777.2,515.6C777.2,515.6,777.2,515.6,777.2,515.6c-0.6-1.9-2.1-3.3-3.9-3.9
		c0.2-0.6,0.3-1.2,0.2-1.9c-0.2-1.3-0.9-2.3-1.9-2.9c0-0.3,0-0.7,0-1c-0.2-1.3-1-2.4-2-3c0.8-1.2,1.2-2.6,1-4.1
		c-0.4-3.1-3.3-5.3-6.5-4.9c0.7-0.9,1.1-2,0.9-3.2c0-0.2-0.1-0.4-0.2-0.6c1.6-0.8,2.5-2.5,2.3-4.3c-0.3-1.8-1.6-3.1-3.2-3.5
		c-0.5-3-3.1-5.1-6.1-4.9c0.2-0.7,0.2-1.5,0.1-2.3c-0.5-3.2-3.4-5.4-6.5-4.9c-0.1,0-0.2,0.1-0.3,0.1c-0.8-0.5-1.7-0.7-2.7-0.6
		c-1.1,0.2-2,0.7-2.6,1.5c-0.5,0-0.9-0.1-1.4,0c-1.1,0.2-2.1,0.6-2.9,1.3c-1-1.5-2.7-2.5-4.6-2.6c-0.4-2.2-2.5-3.6-4.7-3.3
		c-1.3,0.2-2.3,0.9-3,2c-0.7-0.1-1.3-0.2-2.1-0.1c-0.9,0.1-1.6,0.4-2.3,0.9c-0.9-0.9-2.2-1.4-3.6-1.2c-0.3,0-0.6,0.1-0.8,0.2
		c-0.7-0.3-1.4-0.4-2.2-0.3c-1.3,0.2-2.4,1-3.1,2.1c-0.8-0.2-1.6-0.3-2.5-0.2c-2.7,0.4-4.8,2.7-4.9,5.3c-0.7-0.6-1.5-0.9-2.3-1
		c-1.2-1.8-3.3-2.8-5.6-2.5c-1.6,0.2-3,1.1-3.9,2.4c-0.5-0.1-1.1-0.1-1.6,0c-3.2,0.5-5.4,3.4-4.9,6.5c0.1,0.6,0.3,1.2,0.6,1.7
		c-0.1,0-0.2,0-0.3,0c-1.7,0.2-3,1.2-3.9,2.4c-0.5-0.1-1-0.2-1.6-0.1c-1.8,0.3-3.1,1.6-3.5,3.2c-0.4-0.1-0.9-0.1-1.3,0
		c-1.6,0.2-2.8,1.3-3.3,2.6c-2,1.1-3.2,3.4-2.9,5.8c0.1,1,0.6,1.9,1.1,2.7c-1.4,0.5-2.5,1.8-2.7,3.2c-1.4,1.2-2.2,3.1-1.9,5.1
		c0.1,0.6,0.3,1.2,0.6,1.8c-0.1,0.5-0.2,1.1-0.1,1.6c0.3,2,1.9,3.4,3.8,3.6c-0.4,0.8-0.5,1.7-0.5,2.7c-1.8,0.7-2.9,2.5-2.6,4.5
		c0.1,0.8,0.4,1.5,0.9,2c-0.7,1.1-1,2.4-0.8,3.8c0.5,3.2,3.4,5.4,6.5,4.9l101-8.3c2.3-0.3,3.9-2.5,3.6-4.8
		C781.7,516.9,779.5,515.3,777.2,515.6z"/>
	<path id="XMLID_126_" class="st28" d="M154.5,508c-1-1.8-3-2.8-5.1-2.4c-1,0.2-1.9,0.8-2.6,1.5c-0.6-0.1-1.3-0.2-1.9,0
		c0,0,0,0-0.1,0c0,0,0,0,0,0c-0.4-2-1.6-3.5-3.3-4.4c0.5-0.9,0.7-2,0.5-3.1c-0.5-2.6-3-4.2-5.6-3.7c-0.4,0.1-0.7,0.2-1,0.3
		c-1.5-1.5-3.7-2.3-5.9-1.8c-0.1,0-0.3,0.1-0.4,0.1c0.2-0.6,0.2-1.3,0-2c-0.4-2-1.9-3.4-3.8-3.7c0-0.1,0-0.1,0-0.2
		c-0.7-3.5-4.1-5.8-7.6-5.1c-1.6,0.3-2.9,1.2-3.9,2.4c-1-0.8-2.4-1.1-3.7-0.8c-0.1,0-0.2,0.1-0.3,0.1c-0.5-1-1.2-1.9-2.1-2.5
		c0-0.5,0-0.9,0-1.4c-0.5-2.6-3-4.2-5.6-3.7c-1.8,0.4-3.1,1.6-3.6,3.2c-0.2,0-0.5,0-0.7,0.1c-0.7,0.1-1.3,0.4-1.9,0.7
		c-1-1.8-3-2.8-5-2.4c-1.7,0.3-3,1.6-3.5,3.1c-0.8-0.1-1.6-0.2-2.5,0c-0.6,0.1-1.2,0.4-1.7,0.6c-0.2-0.8-0.6-1.4-1.1-2
		c0.3-0.8,0.4-1.6,0.2-2.5c-0.5-2.6-3-4.2-5.6-3.7c-1,0.2-1.9,0.7-2.5,1.4c-1.2-0.5-2.5-0.7-3.9-0.4c-0.7-3.5-4.1-5.8-7.6-5.1
		c-0.1,0-0.2,0.1-0.3,0.1c-1-1.6-2.9-2.5-4.9-2.1c-1.4,0.3-2.5,1.2-3.2,2.3c-0.4,0-0.8,0-1.2,0.1c-1.8,0.4-3.3,1.4-4.2,2.9
		c-1.1-2.8-4.2-4.5-7.3-3.9c-1.7,0.3-3.1,1.3-4,2.6c-0.1,0-0.2,0-0.3,0c-2.1,0.4-3.5,2.1-3.7,4.1c-1.1-0.6-2.3-0.9-3.6-0.8
		c-1.1-0.9-2.5-1.3-3.9-1c-0.1,0-0.2,0.1-0.3,0.1c-1.4-0.8-3-1.2-4.7-0.9c-0.9,0.2-1.7,0.6-2.5,1.1c-1.1-1-2.6-1.5-4.2-1.2
		c-0.1,0-0.2,0.1-0.2,0.1c-1-1.7-3-2.8-5-2.3c-2.6,0.5-4.2,3-3.7,5.6c0,0.2,0.1,0.5,0.2,0.7c-1.9,1.5-2.9,3.9-2.4,6.4
		c0.1,0.7,0.4,1.4,0.8,2c-2.1,1.4-3.2,3.9-2.8,6.4c-0.7-0.2-1.4-0.2-2.1-0.1c-2.6,0.5-4.2,3-3.7,5.6c0.2,0.8,0.6,1.6,1.1,2.2
		c-1.3,0.8-2.3,2.1-2.7,3.6c-0.9-0.2-1.8-0.2-2.7-0.1c-2,0.4-3.6,1.8-4.5,3.5c-0.8-0.3-1.8-0.4-2.7-0.3c-1.5,0.3-2.8,1.4-3.4,2.7
		c-0.3,0-0.6,0-0.9,0.1c-2.4,0.5-4,2.7-3.7,5.1c-0.6,1-0.9,2.2-0.7,3.5c0.5,2.6,3,4.2,5.6,3.7l171.5-1.8c0.8,0.1,1.5,0.1,2.3,0
		c3.5-0.7,5.8-4.1,5.1-7.6C159.5,510.3,157.2,508.3,154.5,508z"/>
</g>
</svg>
