<?xml version="1.0" encoding="utf-8"?>
<!-- Generator: Adobe Illustrator 23.0.0, SVG Export Plug-In . SVG Version: 6.00 Build 0)  -->
<svg version="1.1" id="Layer_1" xmlns="http://www.w3.org/2000/svg" xmlns:xlink="http://www.w3.org/1999/xlink" x="0px" y="0px"
	 viewBox="0 0 228.9 102.3" style="enable-background:new 0 0 228.9 102.3;" xml:space="preserve">
<style type="text/css">
	.st0{fill:#909090;}
	.st1{fill:#A5A5A5;}
</style>
<g>
	<g id="XMLID_164_">
		<path id="XMLID_181_" class="st0" d="M100,84.6V39.8l-10.9-8.1l-10.6,2.5V11.1L62.6,0v13.9L45,21.4v6.2l-6.5-4.8v39
			c0,0,10.3,3.3,18.3,10.5h5.7v1.3h-3c0,0,8.8,9.3,29,13.6c0,0,12.4,1.6,23.5,0L100,84.6z"/>
		<path id="XMLID_180_" class="st0" d="M10,67.9c0,0,19.7-8.6,37.5,2.7l13.1,8.8c0,0,17.2,16.3,50.7,12.7c0,0-24.9,22.6-59,0.5
			c0,0-6.1-4.3-12.5-11.7C39.8,81,30.1,69.4,10,67.9z"/>
		<path id="XMLID_179_" class="st1" d="M0,72.4c0,0,17.2-3.8,30.5,6.8c0,0,4.7,2.7,10.8,9.9c0,0,5.9,6.6,10.6,9.3
			c0,0-13.6,0.5-24.4-8.1c0,0-3.8-2.7-8.2-7C19.2,83.4,8.2,73.9,0,72.4z"/>
		<polygon id="XMLID_178_" class="st1" points="72.2,62.6 72.2,72.1 88.6,72.1 88.6,61.3 		"/>
		<path id="XMLID_177_" class="st1" d="M88.6,87.1V73.9l-16.3,0v7.8C72.2,81.7,78.1,85.7,88.6,87.1z"/>
		<polygon id="XMLID_176_" class="st1" points="88.6,59.6 88.6,47.5 72.2,50 72.2,60.9 		"/>
		<polygon id="XMLID_175_" class="st1" points="88.6,45.6 88.6,31.9 72.2,35.5 72.2,48.3 		"/>
		<polygon id="XMLID_174_" class="st1" points="62.6,12.1 62.6,0 45,9.1 45,19.8 		"/>
		<polygon id="XMLID_173_" class="st1" points="62.6,24.6 62.6,13.9 45,21.4 45,30.7 		"/>
		<path id="XMLID_172_" class="st1" d="M56.9,72.2h5.7v-8.5l-17.5,0.9C45.1,64.6,51.3,67.3,56.9,72.2z"/>
		<polygon id="XMLID_171_" class="st1" points="45,62.6 45,54.4 62.6,51.6 62.6,61.4 		"/>
		<polygon id="XMLID_170_" class="st1" points="45,52.5 45,43.8 62.6,39.3 62.6,49.7 		"/>
		<polygon id="XMLID_169_" class="st1" points="45,42 45,32.6 62.6,26.5 62.6,37.5 		"/>
		<polygon id="XMLID_168_" class="st1" points="38.5,43.4 38.5,34.4 25.3,39 25.3,46.9 		"/>
		<polygon id="XMLID_167_" class="st1" points="38.5,32.8 38.5,22.8 25.3,28.4 25.3,37.4 		"/>
		<polygon id="XMLID_166_" class="st1" points="38.5,45.3 38.5,53.7 25.3,56.1 25.3,48.5 		"/>
		<path id="XMLID_165_" class="st1" d="M13.6,62.6c0,0,16.5-4.6,24.9-0.8v-6.5C38.5,55.2,27.8,55.4,13.6,62.6z"/>
	</g>
	<g>
		<path class="st0" d="M123,89.4c0.4-0.1,0.9-0.1,1.5-0.1c0.8,0,1.3,0.2,1.7,0.5c0.3,0.3,0.5,0.7,0.5,1.2c0,0.5-0.2,1-0.5,1.3
			c-0.4,0.4-1.1,0.7-1.8,0.7c-0.2,0-0.4,0-0.6-0.1v2.4H123V89.4z M123.8,92.2c0.2,0,0.4,0.1,0.6,0.1c0.9,0,1.5-0.4,1.5-1.3
			c0-0.8-0.6-1.2-1.4-1.2c-0.3,0-0.6,0-0.7,0.1V92.2z"/>
		<path class="st0" d="M128.3,89.4c0.4-0.1,0.9-0.1,1.5-0.1c0.8,0,1.3,0.1,1.7,0.5c0.3,0.3,0.5,0.7,0.5,1.1c0,0.8-0.5,1.3-1.1,1.5v0
			c0.5,0.2,0.7,0.6,0.9,1.2c0.2,0.8,0.3,1.4,0.5,1.6h-0.8c-0.1-0.2-0.2-0.7-0.4-1.4c-0.2-0.8-0.5-1.1-1.2-1.2H129v2.6h-0.8V89.4z
			 M129,92.1h0.8c0.8,0,1.3-0.5,1.3-1.1c0-0.8-0.6-1.1-1.4-1.1c-0.4,0-0.6,0-0.8,0.1V92.1z"/>
		<path class="st0" d="M138.7,92.2c0,2-1.2,3.1-2.8,3.1c-1.6,0-2.7-1.2-2.7-3c0-1.9,1.2-3.1,2.8-3.1
			C137.6,89.2,138.7,90.4,138.7,92.2z M134.1,92.3c0,1.3,0.7,2.4,1.9,2.4c1.2,0,1.9-1.1,1.9-2.5c0-1.2-0.6-2.4-1.9-2.4
			C134.7,89.8,134.1,91,134.1,92.3z"/>
		<path class="st0" d="M140.3,89.4c0.4-0.1,0.9-0.1,1.5-0.1c0.8,0,1.3,0.2,1.7,0.5c0.3,0.3,0.5,0.7,0.5,1.2c0,0.5-0.2,1-0.5,1.3
			c-0.4,0.4-1.1,0.7-1.8,0.7c-0.2,0-0.4,0-0.6-0.1v2.4h-0.8V89.4z M141,92.2c0.2,0,0.4,0.1,0.6,0.1c0.9,0,1.5-0.4,1.5-1.3
			c0-0.8-0.6-1.2-1.4-1.2c-0.3,0-0.6,0-0.7,0.1V92.2z"/>
		<path class="st0" d="M148.6,92.5h-2.3v2.1h2.6v0.6h-3.3v-5.9h3.2v0.6h-2.4v1.9h2.3V92.5z"/>
		<path class="st0" d="M150.4,89.4c0.4-0.1,0.9-0.1,1.5-0.1c0.8,0,1.3,0.1,1.7,0.5c0.3,0.3,0.5,0.7,0.5,1.1c0,0.8-0.5,1.3-1.1,1.5v0
			c0.5,0.2,0.7,0.6,0.9,1.2c0.2,0.8,0.3,1.4,0.5,1.6h-0.8c-0.1-0.2-0.2-0.7-0.4-1.4c-0.2-0.8-0.5-1.1-1.2-1.2h-0.7v2.6h-0.8V89.4z
			 M151.2,92.1h0.8c0.8,0,1.3-0.5,1.3-1.1c0-0.8-0.6-1.1-1.4-1.1c-0.4,0-0.6,0-0.8,0.1V92.1z"/>
		<path class="st0" d="M157,90h-1.8v-0.7h4.4V90h-1.8v5.3H157V90z"/>
		<path class="st0" d="M162.3,95.2v-2.5l-1.9-3.4h0.9l0.8,1.6c0.2,0.4,0.4,0.8,0.6,1.2h0c0.2-0.4,0.4-0.8,0.6-1.2l0.9-1.6h0.9
			l-2,3.4v2.5H162.3z"/>
		<path class="st0" d="M173.8,92.6c0-0.8-0.1-1.8-0.1-2.6h0c-0.2,0.7-0.4,1.4-0.8,2.3l-1,2.9h-0.6l-1-2.8c-0.3-0.8-0.5-1.6-0.7-2.3
			h0c0,0.7-0.1,1.7-0.1,2.6l-0.2,2.5h-0.7l0.4-5.9h1l1,2.9c0.2,0.7,0.5,1.4,0.6,2h0c0.2-0.6,0.4-1.3,0.6-2l1.1-2.9h1l0.4,5.9H174
			L173.8,92.6z"/>
		<path class="st0" d="M177.3,93.4l-0.6,1.9h-0.8l2-5.9h0.9l2,5.9h-0.8l-0.6-1.9H177.3z M179.3,92.8l-0.6-1.7
			c-0.1-0.4-0.2-0.7-0.3-1.1h0c-0.1,0.4-0.2,0.7-0.3,1.1l-0.6,1.7H179.3z"/>
		<path class="st0" d="M182.3,95.2v-5.9h0.8l1.9,3c0.4,0.7,0.8,1.3,1.1,1.9l0,0c-0.1-0.8-0.1-1.5-0.1-2.4v-2.5h0.7v5.9H186l-1.9-3
			c-0.4-0.7-0.8-1.3-1.1-2l0,0c0,0.7,0.1,1.5,0.1,2.5v2.5H182.3z"/>
		<path class="st0" d="M189.7,93.4l-0.6,1.9h-0.8l2-5.9h0.9l2,5.9h-0.8l-0.6-1.9H189.7z M191.6,92.8l-0.6-1.7
			c-0.1-0.4-0.2-0.7-0.3-1.1h0c-0.1,0.4-0.2,0.7-0.3,1.1l-0.6,1.7H191.6z"/>
		<path class="st0" d="M199.1,95c-0.3,0.1-1,0.3-1.8,0.3c-0.9,0-1.6-0.2-2.2-0.8c-0.5-0.5-0.8-1.3-0.8-2.2c0-1.8,1.2-3.1,3.2-3.1
			c0.7,0,1.2,0.1,1.5,0.3l-0.2,0.6c-0.3-0.1-0.7-0.3-1.3-0.3c-1.4,0-2.4,0.9-2.4,2.4c0,1.5,0.9,2.4,2.3,2.4c0.5,0,0.8-0.1,1-0.2
			v-1.8h-1.2v-0.6h2V95z"/>
		<path class="st0" d="M203.9,92.5h-2.3v2.1h2.6v0.6h-3.3v-5.9h3.2v0.6h-2.4v1.9h2.3V92.5z"/>
		<path class="st0" d="M210.7,92.6c0-0.8-0.1-1.8-0.1-2.6h0c-0.2,0.7-0.5,1.4-0.7,2.3l-1,2.9h-0.6l-1-2.8c-0.3-0.8-0.5-1.6-0.7-2.3
			h0c0,0.7-0.1,1.7-0.1,2.6l-0.2,2.5h-0.7l0.4-5.9h1l1,2.9c0.2,0.7,0.4,1.4,0.6,2h0c0.1-0.6,0.4-1.3,0.6-2l1.1-2.9h1l0.4,5.9h-0.8
			L210.7,92.6z"/>
		<path class="st0" d="M216.5,92.5h-2.3v2.1h2.6v0.6h-3.3v-5.9h3.2v0.6h-2.4v1.9h2.3V92.5z"/>
		<path class="st0" d="M218.3,95.2v-5.9h0.8l1.9,3c0.4,0.7,0.8,1.3,1.1,1.9l0,0c-0.1-0.8-0.1-1.5-0.1-2.4v-2.5h0.7v5.9H222l-1.9-3
			c-0.4-0.7-0.8-1.3-1.1-2l0,0c0,0.7,0.1,1.5,0.1,2.5v2.5H218.3z"/>
		<path class="st0" d="M225.8,90H224v-0.7h4.4V90h-1.8v5.3h-0.8V90z"/>
	</g>
	<path id="XMLID_140_" class="st0" d="M142.1,83.7V65.5h-8.8v18.1H123V40.2h10.2v17.3h8.8V40.2h10.3v43.4H142.1z"/>
	<path id="XMLID_61_" class="st0" d="M158.7,47.7c0.6-1.7,1.5-3.2,2.7-4.5c1.1-1.2,2.5-2.1,4-2.7c1.5-0.6,3.3-0.8,5.2-0.8
		c1.9,0.1,4,0.5,6.2,1.3c2.3,0.9,4.2,1.9,5.8,3.1c1.5,1.2,2.7,2.5,3.4,4c0.8,1.5,1.2,3,1.2,4.6c0,1.6-0.2,3.3-0.9,5l-6.8,18.5
		c-0.6,1.7-1.5,3.2-2.6,4.4c-1.1,1.2-2.4,2.1-3.9,2.7c-1.5,0.6-3.2,0.9-5.2,0.8c-1.9-0.1-4.1-0.5-6.4-1.4c-2.2-0.8-4.1-1.8-5.6-3
		c-1.5-1.2-2.6-2.5-3.4-3.9c-0.8-1.4-1.2-3-1.3-4.6c-0.1-1.6,0.2-3.3,0.8-5.1L158.7,47.7z M174.1,48.3c-1-0.4-1.8-0.5-2.4-0.4
		c-0.7,0.1-1.2,0.3-1.7,0.6s-0.8,0.7-1.1,1.2s-0.5,1-0.7,1.6l-6.7,18.3c-0.2,0.5-0.4,1.1-0.5,1.6s-0.1,1.1,0,1.6
		c0.1,0.5,0.4,1,0.9,1.5c0.4,0.5,1.2,0.9,2.1,1.3c0.9,0.3,1.7,0.5,2.4,0.4c0.6-0.1,1.2-0.3,1.6-0.6s0.8-0.7,1.1-1.2
		c0.3-0.5,0.5-1,0.7-1.6l6.7-18.3c0.2-0.5,0.3-1.1,0.5-1.7c0.1-0.6,0.1-1.1,0-1.7c-0.1-0.5-0.4-1-0.8-1.5
		C175.7,49,175,48.6,174.1,48.3z"/>
	<path id="XMLID_59_" class="st0" d="M186.5,83.7c-1.5,0-2.8-0.4-3.9-1.3c-1.1-0.9-1.6-2.1-1.6-3.7c0-0.8,0.2-1.8,0.5-2.8
		c0.4-1,0.9-2.1,1.7-3.3l16.5-24.3c-0.2,0-0.5-0.1-0.9-0.1c-0.4,0-0.7,0-1,0h-13.3l-3.4-7.9h11.7h3.8c1,0,1.8,0,2.6,0
		c0.8,0,1.2,0,1.2,0c2.7,0,5,0.5,6.7,1.6c1.7,1.1,2.6,2.6,2.6,4.7c0,0.9-0.2,1.9-0.6,3c-0.4,1.1-1.1,2.3-1.9,3.6l-15.4,22.5
		c0.2,0,0.5,0,1,0s0.8,0,1,0.1h21.9l-1.2,7.9h-13.6h-1.4H192h-2.3H186.5z"/>
	<circle id="XMLID_58_" class="st1" cx="215.4" cy="44.9" r="10.8"/>
	<path id="XMLID_57_" class="st0" d="M214.5,83.7L214.5,83.7c-2.8,0-5.1-2.3-5.1-5.1V59.4c0-2.8,2.3-5.1,5.1-5.1h0
		c2.8,0,5.1,2.3,5.1,5.1v19.1C219.7,81.4,217.4,83.7,214.5,83.7z"/>
	<circle id="XMLID_56_" class="st0" cx="215.4" cy="44.9" r="5.7"/>
</g>
</svg>
